<svg width="12" height="12" viewBox="0 0 12 12" fill="none" xmlns="http://www.w3.org/2000/svg">
<g clip-path="url(#clip0)">
<path d="M7.09939 6.01315L11.772 1.34045C12.076 1.03651 12.076 0.545079 11.772 0.241139C11.468 -0.0628014 10.9766 -0.0628014 10.6727 0.241139L5.99994 4.91384L1.32737 0.241139C1.02329 -0.0628014 0.532003 -0.0628014 0.228062 0.241139C-0.0760207 0.545079 -0.0760207 1.03651 0.228062 1.34045L4.90063 6.01315L0.228062 10.6859C-0.0760207 10.9898 -0.0760207 11.4812 0.228062 11.7852C0.379534 11.9368 0.578697 12.0129 0.777717 12.0129C0.976738 12.0129 1.17576 11.9368 1.32737 11.7852L5.99994 7.11246L10.6727 11.7852C10.8243 11.9368 11.0233 12.0129 11.2223 12.0129C11.4213 12.0129 11.6203 11.9368 11.772 11.7852C12.076 11.4812 12.076 10.9898 11.772 10.6859L7.09939 6.01315Z" fill="white"/>
</g>
<defs>
<clipPath id="clip0">
<rect width="12" height="12" fill="white"/>
</clipPath>
</defs>
</svg>
