<svg width="48" height="48" viewBox="0 0 48 48" fill="none" xmlns="http://www.w3.org/2000/svg">
<mask id="path-1-inside-1" fill="white">
<path d="M46.7404 37.0298L37.0251 30.5507C35.7922 29.7351 34.1395 30.0035 33.228 31.1674L30.398 34.806C30.0343 35.2856 29.3732 35.4247 28.8471 35.1324L28.3087 34.8357C26.5242 33.863 24.3038 32.652 19.83 28.1767C15.3563 23.7013 14.1429 21.4792 13.1702 19.6979L12.875 19.1596C12.5787 18.6336 12.7152 17.9696 13.1949 17.603L16.8311 14.7739C17.9946 13.8623 18.2633 12.2101 17.4487 10.9768L10.9696 1.26146C10.1347 0.00558168 8.45965 -0.371425 7.16712 0.405554L3.10451 2.84597C1.82801 3.59642 0.891494 4.81181 0.491335 6.23744C-0.971605 11.5678 0.12895 20.7673 13.6806 34.3205C24.4606 45.0997 32.4858 47.9985 38.0018 47.9985C39.2713 48.0039 40.5358 47.8387 41.7613 47.5074C43.1872 47.1077 44.4028 46.1711 45.1527 44.8942L47.5956 40.834C48.3737 39.5412 47.9969 37.8651 46.7404 37.0298ZM46.2173 40.0133L43.7801 44.0759C43.2416 44.9975 42.3673 45.6751 41.3404 45.9668C36.4195 47.3178 27.8224 46.1988 14.8123 33.1887C1.80223 20.1786 0.683306 11.5823 2.03432 6.66066C2.32641 5.63256 3.00487 4.75716 3.92761 4.2178L7.99022 1.78057C8.55104 1.44312 9.27806 1.60669 9.64035 2.15167L13.1599 7.43567L16.1139 11.8662C16.4676 12.4011 16.3514 13.1181 15.8467 13.514L12.2097 16.3431C11.1028 17.1895 10.7867 18.7208 11.4682 19.9362L11.757 20.461C12.7793 22.3359 14.0503 24.6683 18.6904 29.3077C23.3305 33.947 25.6622 35.218 27.5363 36.2402L28.0617 36.5298C29.277 37.2111 30.8085 36.8951 31.6548 35.7883L34.484 32.1513C34.8799 31.6469 35.5966 31.5307 36.1318 31.8841L45.8463 38.3631C46.3917 38.7252 46.5552 39.4525 46.2173 40.0133Z"/>
</mask>
<path d="M46.7404 37.0298L45.6308 38.6937L45.6331 38.6952L46.7404 37.0298ZM37.0251 30.5507L38.1347 28.8868L38.1285 28.8827L37.0251 30.5507ZM33.228 31.1674L31.6534 29.9343L31.6493 29.9395L33.228 31.1674ZM30.398 34.806L28.8193 33.5782L28.8118 33.5878L28.8045 33.5975L30.398 34.806ZM28.8471 35.1324L29.8183 33.3841L29.8126 33.381L28.8471 35.1324ZM28.3087 34.8357L29.2743 33.0842L29.2659 33.0796L28.3087 34.8357ZM13.1702 19.6979L14.9255 18.7394L14.9238 18.7364L13.1702 19.6979ZM12.875 19.1596L14.6287 18.198L14.6232 18.188L14.6176 18.1781L12.875 19.1596ZM13.1949 17.603L14.4093 19.1922L14.4162 19.1869L14.4231 19.1815L13.1949 17.603ZM16.8311 14.7739L18.0593 16.3524L18.0646 16.3482L16.8311 14.7739ZM17.4487 10.9768L19.1175 9.87448L19.1126 9.86718L17.4487 10.9768ZM10.9696 1.26146L9.30409 2.36871L9.30569 2.37111L10.9696 1.26146ZM7.16712 0.405554L8.197 2.12001L8.19754 2.11968L7.16712 0.405554ZM3.10451 2.84597L4.11812 4.5701L4.12627 4.5653L4.13438 4.56043L3.10451 2.84597ZM0.491335 6.23744L-1.43428 5.69694L-1.43735 5.70811L0.491335 6.23744ZM13.6806 34.3205L12.2663 35.7346L12.2664 35.7348L13.6806 34.3205ZM38.0018 47.9985L38.0104 45.9985H38.0018V47.9985ZM41.7613 47.5074L42.2833 49.4381L42.2922 49.4356L42.3011 49.4332L41.7613 47.5074ZM45.1527 44.8942L43.439 43.8631L43.4336 43.8722L43.4282 43.8813L45.1527 44.8942ZM47.5956 40.834L45.882 39.8027L45.8819 39.8029L47.5956 40.834ZM46.2173 40.0133L44.5043 38.981L44.5023 38.9844L46.2173 40.0133ZM43.7801 44.0759L42.065 43.047L42.0591 43.0569L42.0532 43.0669L43.7801 44.0759ZM41.3404 45.9668L41.8699 47.8955L41.8784 47.8931L41.8869 47.8907L41.3404 45.9668ZM2.03432 6.66066L0.110458 6.11409L0.108026 6.12265L0.105671 6.13123L2.03432 6.66066ZM3.92761 4.2178L4.93687 5.94447L4.94672 5.93871L4.95649 5.93285L3.92761 4.2178ZM7.99022 1.78057L9.01911 3.49562L9.02136 3.49426L7.99022 1.78057ZM9.64035 2.15167L7.9748 3.25889L7.97579 3.26038L9.64035 2.15167ZM13.1599 7.43567L11.4953 8.54438L11.4958 8.54515L13.1599 7.43567ZM16.1139 11.8662L17.7821 10.763L17.7779 10.7567L16.1139 11.8662ZM15.8467 13.514L17.0747 15.0926L17.081 15.0877L15.8467 13.514ZM12.2097 16.3431L13.4245 17.9319L13.4311 17.9269L13.4376 17.9218L12.2097 16.3431ZM11.4682 19.9362L13.2204 18.9719L13.2166 18.965L13.2127 18.9581L11.4682 19.9362ZM11.757 20.461L13.513 19.5035L13.5092 19.4966L11.757 20.461ZM18.6904 29.3077L17.2763 30.722L17.2763 30.722L18.6904 29.3077ZM27.5363 36.2402L28.5015 34.4885L28.4939 34.4844L27.5363 36.2402ZM28.0617 36.5298L29.0398 34.7852L29.0334 34.7816L29.0269 34.7781L28.0617 36.5298ZM31.6548 35.7883L30.0762 34.5603L30.0711 34.5669L30.0661 34.5735L31.6548 35.7883ZM34.484 32.1513L32.9108 30.9163L32.9053 30.9233L34.484 32.1513ZM36.1318 31.8841L37.2415 30.2202L37.2339 30.2152L36.1318 31.8841ZM45.8463 38.3631L44.7366 40.027L44.7402 40.0294L45.8463 38.3631ZM47.8501 35.3658L38.1347 28.8868L35.9154 32.2146L45.6308 38.6937L47.8501 35.3658ZM38.1285 28.8827C36.026 27.4918 33.2077 27.9495 31.6534 29.9343L34.8026 32.4005C35.0713 32.0575 35.5583 31.9784 35.9216 32.2188L38.1285 28.8827ZM31.6493 29.9395L28.8193 33.5782L31.9767 36.0339L34.8067 32.3953L31.6493 29.9395ZM28.8045 33.5975C29.0423 33.2839 29.4744 33.1931 29.8183 33.3841L27.8759 36.8808C29.272 37.6564 31.0263 37.2873 31.9916 36.0146L28.8045 33.5975ZM29.8126 33.381L29.2743 33.0842L27.3432 36.5871L27.8815 36.8839L29.8126 33.381ZM29.2659 33.0796C27.6297 32.1877 25.5679 31.0877 21.2445 26.7627L18.4156 29.5906C23.0396 34.2163 25.4187 35.5382 27.3516 36.5917L29.2659 33.0796ZM21.2445 26.7627C16.9207 22.4373 15.8177 20.3733 14.9255 18.7394L11.4148 20.6565C12.468 22.5851 13.7919 24.9653 18.4156 29.5906L21.2445 26.7627ZM14.9238 18.7364L14.6287 18.198L11.1213 20.1212L11.4165 20.6595L14.9238 18.7364ZM14.6176 18.1781C14.8107 18.521 14.7216 18.9535 14.4093 19.1922L11.9806 16.0139C10.7087 16.9858 10.3467 18.7462 11.1324 20.1411L14.6176 18.1781ZM14.4231 19.1815L18.0593 16.3524L15.603 13.1954L11.9668 16.0245L14.4231 19.1815ZM18.0646 16.3482C20.0482 14.794 20.5064 11.9772 19.1175 9.87449L15.7799 12.0792C16.0202 12.443 15.941 12.9306 15.5976 13.1996L18.0646 16.3482ZM19.1126 9.86718L12.6336 0.151806L9.30569 2.37111L15.7847 12.0865L19.1126 9.86718ZM12.6352 0.15421C11.2083 -1.99216 8.34556 -2.63639 6.13671 -1.30858L8.19754 2.11968C8.57374 1.89354 9.06118 2.00332 9.30409 2.36871L12.6352 0.15421ZM6.13725 -1.3089L2.07463 1.13152L4.13438 4.56043L8.197 2.12001L6.13725 -1.3089ZM2.0909 1.12185C0.368966 2.13417 -0.894415 3.7737 -1.43425 5.69695L2.41692 6.77793C2.6774 5.84991 3.28706 5.05868 4.11812 4.5701L2.0909 1.12185ZM-1.43735 5.70811C-3.16987 12.0208 -1.53852 21.9282 12.2663 35.7346L15.0949 32.9064C1.79642 19.6064 1.22666 11.1149 2.42002 6.76677L-1.43735 5.70811ZM12.2664 35.7348C23.2404 46.7079 31.7449 49.9985 38.0018 49.9985V45.9985C33.2267 45.9985 25.6807 43.4914 15.0947 32.9062L12.2664 35.7348ZM37.9932 49.9985C39.4419 50.0047 40.8848 49.8162 42.2833 49.4381L41.2393 45.5767C40.1867 45.8613 39.1007 46.0032 38.0104 45.9985L37.9932 49.9985ZM42.3011 49.4332C44.2251 48.8939 45.8653 47.6301 46.8773 45.9071L43.4282 43.8813C42.9402 44.7121 42.1493 45.3215 41.2215 45.5816L42.3011 49.4332ZM46.8665 45.9253L49.3093 41.8651L45.8819 39.8029L43.439 43.8631L46.8665 45.9253ZM49.3092 41.8654C50.6388 39.6561 49.9949 36.7919 47.8478 35.3643L45.6331 38.6952C45.9988 38.9384 46.1086 39.4263 45.882 39.8027L49.3092 41.8654ZM44.5023 38.9844L42.065 43.047L45.4951 45.1048L47.9324 41.0422L44.5023 38.9844ZM42.0532 43.0669C41.7753 43.5425 41.324 43.8923 40.7939 44.0429L41.8869 47.8907C43.4105 47.4579 44.7078 46.4525 45.5069 45.0849L42.0532 43.0669ZM40.8109 44.0382C36.898 45.1125 29.0112 44.5592 16.2265 31.7745L13.3981 34.6029C26.6337 47.8385 35.9411 49.5232 41.8699 47.8955L40.8109 44.0382ZM16.2265 31.7745C3.4419 18.9899 2.88863 11.1038 3.96298 7.19009L0.105671 6.13123C-1.52202 12.0607 0.162565 21.3674 13.3981 34.6029L16.2265 31.7745ZM3.95819 7.20723C4.10916 6.67582 4.45989 6.22327 4.93687 5.94447L2.91834 2.49113C1.54985 3.29104 0.54365 4.5893 0.110458 6.11409L3.95819 7.20723ZM4.95649 5.93285L9.01911 3.49562L6.96133 0.0655199L2.89872 2.50275L4.95649 5.93285ZM9.02136 3.49426C8.66565 3.70829 8.20458 3.60455 7.9748 3.25889L11.3059 1.04445C10.3515 -0.391171 8.43644 -0.822058 6.95908 0.066873L9.02136 3.49426ZM7.97579 3.26038L11.4953 8.54438L14.8244 6.32696L11.3049 1.04296L7.97579 3.26038ZM11.4958 8.54515L14.4498 12.9757L17.7779 10.7567L14.8239 6.32619L11.4958 8.54515ZM14.4456 12.9694C14.2246 12.6352 14.2973 12.1874 14.6124 11.9403L17.081 15.0877C18.4055 14.0488 18.7106 12.1671 17.7821 10.763L14.4456 12.9694ZM14.6187 11.9353L10.9817 14.7645L13.4376 17.9218L17.0747 15.0926L14.6187 11.9353ZM10.9948 14.7544C9.09735 16.2053 8.55539 18.8307 9.72371 20.9144L13.2127 18.9581C13.0181 18.611 13.1083 18.1737 13.4245 17.9319L10.9948 14.7544ZM9.71605 20.9006L10.0049 21.4253L13.5092 19.4966L13.2204 18.9719L9.71605 20.9006ZM10.0011 21.4184C11.1026 23.4386 12.484 25.9305 17.2763 30.722L20.1045 27.8933C15.6166 23.4061 14.456 21.2331 13.513 19.5035L10.0011 21.4184ZM17.2763 30.722C22.0684 35.5133 24.5593 36.8946 26.5786 37.996L28.4939 34.4844C26.7651 33.5414 24.5926 32.3807 20.1045 27.8933L17.2763 30.722ZM26.5711 37.9919L27.0965 38.2814L29.0269 34.7781L28.5015 34.4885L26.5711 37.9919ZM27.0837 38.2743C29.1671 39.4424 31.7926 38.9007 33.2436 37.0032L30.0661 34.5735C29.8244 34.8896 29.3869 34.9798 29.0398 34.7852L27.0837 38.2743ZM33.2335 37.0163L36.0626 33.3792L32.9053 30.9233L30.0762 34.5603L33.2335 37.0163ZM36.0572 33.3862C35.81 33.7011 35.3629 33.7731 35.0297 33.553L37.2339 30.2152C35.8303 29.2883 33.9499 29.5926 32.9108 30.9163L36.0572 33.3862ZM35.022 33.548L44.7366 40.027L46.956 36.6993L37.2415 30.2202L35.022 33.548ZM44.7402 40.0294C44.3934 39.7993 44.2897 39.3371 44.5043 38.981L47.9303 41.0456C48.8207 39.568 48.3899 37.651 46.9524 36.6968L44.7402 40.0294Z" fill="white" mask="url(#path-1-inside-1)"/>
<path d="M2 5L8.5 1L10 1.5L17 11.5V13.5L12.5 16.5L12 18.5L14 23L21 30.5L28.5 36H30.5L34 31.5L36 31L46.5 37.5L47.5 39.5L43.5 46L41 47H36.5L33 46.5L24.5 42.5L14.5 34.5L5.5 23.5L1.5 15L1 9.5L2 5Z" fill="white"/>
<path d="M42.3965 21.6021C42.3965 22.0439 42.0384 22.402 41.5966 22.402C41.1549 22.402 40.7968 22.0439 40.7968 21.6021C40.7883 14.0957 34.7053 8.01246 27.1988 8.00412C26.757 8.00412 26.3989 7.64605 26.3989 7.20427C26.3989 6.76249 26.757 6.40442 27.1988 6.40442C35.5884 6.41361 42.3872 13.2125 42.3965 21.6021ZM42.3965 21.6021L41.5966 21.603L41.3965 21.6032C41.3965 21.6029 41.3965 21.6025 41.3965 21.6021H41.5966H41.7968H42.3965Z" stroke="white" stroke-width="2"/>
<path d="M37.5972 21.6021C37.5972 22.0439 37.2391 22.402 36.7973 22.402C36.3557 22.402 35.9975 22.0439 35.9975 21.6021C35.9918 16.7451 32.0558 12.8091 27.1988 12.8034C26.757 12.8034 26.3989 12.4453 26.3989 12.0035C26.3989 11.5617 26.757 11.2037 27.1988 11.2037C32.9389 11.2102 37.5905 15.8619 37.5972 21.6021ZM37.5972 21.6021L36.7973 21.603L36.5972 21.6033C36.5972 21.6029 36.5972 21.6025 36.5972 21.6021H36.7973H36.9975H37.5972Z" stroke="white" stroke-width="2"/>
<path d="M32.7979 21.6021C32.7979 22.0439 32.4397 22.402 31.9981 22.402C31.5564 22.402 31.1982 22.0439 31.1982 21.6021C31.1955 19.3944 29.4064 17.6053 27.1988 17.6027C26.757 17.6027 26.3989 17.2446 26.3989 16.8028C26.3989 16.3611 26.757 16.003 27.1988 16.003C30.2896 16.0065 32.7943 18.5113 32.7979 21.6021ZM32.7979 21.6021L31.9981 21.6031L31.7979 21.6033C31.7979 21.6029 31.7979 21.6025 31.7979 21.6021H31.9981H32.1982H32.7979Z" stroke="white" stroke-width="2"/>
</svg>
