<svg width="22" height="22" fill="none" xmlns="http://www.w3.org/2000/svg"><g clip-path="url(#clip0)" fill="#fff"><path d="M11 2.28c.239.18.448.2 1.073.235 1.83.105 2.99.496 4.282 1.443 1.58 1.157 2.571 2.77 2.947 4.794.097.524.145.968.177 1.639.02.45.036.624.138.82a.936.936 0 00.843.482.927.927 0 00.727-.334c.227-.277.226-.535.204-1.09-.065-1.72-.441-3.266-1.118-4.593-.482-.945-.943-1.564-1.761-2.366-.872-.848-1.545-1.323-2.572-1.813-1.088-.52-1.857-.684-2.984-.821-.228-.026-.656-.06-.953-.07-.566-.019-.787-.003-1.048.229a.932.932 0 00-.3.736.92.92 0 00.345.71z"/><path d="M16.705 9.717c0 .487.04.944.52 1.18.132.069.304.103.471.103a.924.924 0 00.404-.083c.195-.1.39-.31.467-.5.097-.247.053-1.128.025-1.376a6.746 6.746 0 00-1.115-3.032c-1.087-1.578-2.715-2.532-4.838-2.836-.72-.106-1.255-.144-1.57.337a.93.93 0 00.077 1.156c.232.264.566.324.86.347.844.067 1.789.343 2.409.704a4.65 4.65 0 011.727 1.755c.358.64.563 1.458.563 2.245z"/><path d="M14.858 6.74c-.474-.435-1.03-.707-1.747-.857a4.978 4.978 0 00-.616-.074c-.3-.019-.422-.015-.635.088a.93.93 0 00-.494.655.926.926 0 00.203.792c.216.247.438.309.885.362.746.09 1.167.34 1.405.839.12.254.188.533.228.934.04.375.114.616.382.814.168.127.38.19.591.19.23 0 .46-.076.626-.225l.002-.001c.345-.312.36-.698.266-1.301-.145-.966-.482-1.65-1.096-2.216z"/><path d="M21.398 17.306a1.7 1.7 0 00-.388-1.023c-.234-.28-1.726-1.48-2.392-1.943a20.407 20.407 0 00-1.72-1.059c-.565-.286-1.133-.336-1.693-.147-.122.041-.21.078-.292.122-.283.151-.49.39-.895.894-.433.531-.523.635-.522.635-.041.025-.106.06-.185.097-.322.149-.85.026-1.709-.4-.725-.355-1.375-.813-2.11-1.481-.626-.567-1.256-1.302-1.605-1.872-.485-.791-.779-1.707-.782-2.132 0-.165.071-.403.148-.534l.034-.036c.023-.022.048-.047.083-.078.12-.11.295-.258.477-.404.8-.639 1.052-.898 1.187-1.379.131-.444.016-.992-.36-1.722C8.11 3.754 6.328 1.436 5.585.947A2.575 2.575 0 005.12.716C4.815.606 4.376.569 4.104.628c-.377.078-.791.32-1.705.994-.5.372-1.272 1.1-1.481 1.448-.494.843-.368 1.574.08 2.799a23.432 23.432 0 001.624 3.494l.034.058c.131.23.265.46.406.69l.037.057c.14.226.28.452.429.676l.233.345a29.366 29.366 0 00.81 1.136c2.007 2.655 4.32 4.786 7.068 6.515l.113.072c.398.248.823.497 1.261.738l.171.093c.454.246.885.465 1.318.671l.135.063c.51.24.979.447 1.428.631.545.224.797.292 1.18.292.068 0 .14-.002.22-.006a2.76 2.76 0 00.678-.114c.295-.091.59-.244.928-.48a4.095 4.095 0 00.417-.326c.385-.34.827-.831 1.183-1.316.19-.26.442-.635.568-.958.118-.302.171-.603.159-.894z"/></g><defs><clipPath id="clip0"><path fill="#fff" transform="translate(1 1)" d="M0 0h20.8v20.8H0z"/></clipPath></defs></svg>