<?xml version="1.0" encoding="utf-8"?><svg width="22" height="22" xmlns="http://www.w3.org/2000/svg" viewBox="0 0 22 22"><g clip-path="url(#hclip0)"><path d="M11.003.6h-.005C5.263.6.6 5.264.6 11c0 2.275.733 4.384 1.98 6.096l-1.296 3.863 3.997-1.278a10.31 10.31 0 005.722 1.719C16.737 21.4 21.4 16.734 21.4 11S16.737.6 11.003.6zm6.051 14.686c-.25.709-1.246 1.296-2.04 1.468-.544.115-1.254.208-3.643-.783-3.057-1.266-5.025-4.372-5.178-4.573-.147-.202-1.235-1.645-1.235-3.137 0-1.493.758-2.22 1.063-2.531.251-.256.666-.373 1.064-.373.128 0 .244.006.348.011.305.013.459.032.66.514.251.604.862 2.097.935 2.25.074.154.148.362.044.563-.097.208-.183.3-.336.477-.154.177-.3.312-.453.502-.14.165-.299.342-.122.647.177.3.788 1.296 1.687 2.097 1.161 1.034 2.102 1.364 2.44 1.504.25.104.549.08.732-.115.233-.251.52-.667.813-1.077.208-.293.47-.33.746-.226.28.098 1.767.832 2.072.984.306.154.507.226.581.355.073.129.073.733-.178 1.443z"/></g><defs><clipPath id="hclip0"><path transform="translate(1 1)" d="M0 0h20.8v20.8H0z"/></clipPath></defs></svg>