<?xml version="1.0" encoding="utf-8"?><svg width="48" height="48" xmlns="http://www.w3.org/2000/svg" viewBox="0 0 48 48"><path d="M37.025 30.55l9.715 6.48a2.821 2.821 0 01.856 3.804l-2.443 4.06a5.725 5.725 0 01-3.392 2.613c-1.225.332-2.49.497-3.76.492-5.515 0-13.54-2.9-24.32-13.678C.129 20.767-.972 11.568.49 6.237a5.73 5.73 0 012.614-3.391L7.167.406a2.82 2.82 0 013.803.855l6.479 9.716a2.837 2.837 0 01-.618 3.797l-3.636 2.829a1.211 1.211 0 00-.32 1.557l.295.538c.973 1.781 2.186 4.003 6.66 8.479 4.474 4.475 6.694 5.686 8.479 6.659l.538.296a1.21 1.21 0 001.551-.326l2.83-3.639a2.836 2.836 0 013.797-.616zM42.397 21.602a.8.8 0 11-1.6 0c-.009-7.506-6.092-13.59-13.598-13.598a.8.8 0 110-1.6c8.39.01 15.188 6.809 15.198 15.198zm0 0l-.8.001h-.2 1z"/><path d="M37.597 21.602a.8.8 0 11-1.6 0 8.81 8.81 0 00-8.798-8.799.8.8 0 110-1.6c5.74.007 10.391 4.659 10.398 10.4zm0 0l-.8.001h-.2 1z"/><path d="M32.798 21.602a.8.8 0 01-1.6 0 4.004 4.004 0 00-4-4 .8.8 0 110-1.599 5.606 5.606 0 015.6 5.6zm0 0l-.8.001h-.2 1z"/></svg>