<?xml version="1.0" encoding="utf-8"?><svg width="48" height="48" xmlns="http://www.w3.org/2000/svg" viewBox="0 0 48 48"><mask id="da"><path d="M46.74 37.03l-9.715-6.48a2.836 2.836 0 00-3.797.617l-2.83 3.639a1.21 1.21 0 01-1.55.326l-.54-.296c-1.784-.973-4.004-2.184-8.478-6.66-4.474-4.475-5.687-6.697-6.66-8.478l-.295-.538a1.211 1.211 0 01.32-1.557l3.636-2.83a2.837 2.837 0 00.618-3.796l-6.48-9.716A2.82 2.82 0 007.168.406l-4.062 2.44A5.73 5.73 0 00.49 6.237c-1.463 5.33-.362 14.53 13.19 28.084C24.46 45.1 32.486 47.999 38 47.999c1.27.005 2.535-.16 3.76-.492a5.725 5.725 0 003.392-2.613l2.443-4.06a2.821 2.821 0 00-.856-3.804zm-.523 2.983l-2.437 4.063a4.134 4.134 0 01-2.44 1.89c-4.92 1.352-13.518.233-26.528-12.777C1.802 20.179.683 11.582 2.034 6.66a4.14 4.14 0 011.894-2.443L7.99 1.78a1.224 1.224 0 011.65.37l3.52 5.285 2.954 4.43a1.231 1.231 0 01-.267 1.648l-3.637 2.83a2.8 2.8 0 00-.742 3.592l.289.525c1.022 1.875 2.293 4.207 6.933 8.847 4.64 4.639 6.972 5.91 8.846 6.932l.526.29a2.8 2.8 0 003.593-.742l2.829-3.637a1.232 1.232 0 011.648-.267l9.714 6.48c.546.361.71 1.089.371 1.65z"/></mask><path d="M46.74 37.03l-1.11 1.664.003.001 1.107-1.665zm-9.715-6.48l1.11-1.663-.006-.004-1.104 1.668zm-3.797.617l-1.575-1.233-.004.005 1.579 1.228zm-2.83 3.639l-1.579-1.228-.007.01-.008.01 1.594 1.208zm-1.55.326l.97-1.748-.005-.003-.966 1.751zm-.54-.296l.966-1.752-.008-.004-.957 1.756zM13.17 19.698l1.755-.959-.001-.003-1.754.962zm-.295-.538l1.754-.962-.006-.01-.005-.01-1.743.982zm.32-1.557l1.214 1.59.007-.006.007-.006-1.228-1.578zm3.636-2.83l1.228 1.58.006-.005-1.234-1.574zm.618-3.796l1.668-1.103-.004-.007-1.664 1.11zm-6.48-9.716L9.305 2.37l.002.002 1.664-1.11zM7.168.406l1.03 1.714L7.168.406zm-4.062 2.44L4.118 4.57l.008-.005.008-.005-1.03-1.714zM.49 6.237l-1.925-.54-.003.011 1.928.53zm13.19 28.084l-1.415 1.414 1.415-1.414zM38 47.999l.01-2H38v2zm3.76-.492l.522 1.931.01-.002.008-.003-.54-1.926zm3.392-2.613l-1.714-1.03-.005.008-.006.01 1.725 1.012zm2.443-4.06l-1.714-1.031 1.714 1.031zm-1.379-.82l-1.713-1.033-.002.003 1.715 1.03zm-2.437 4.062l-1.715-1.029-.006.01-.006.01 1.727 1.009zm-2.44 1.89l.53 1.93.008-.003.009-.002-.547-1.924zM2.034 6.662L.11 6.114l-.002.009-.002.008 1.928.53zm1.894-2.443l1.009 1.726.01-.005.01-.006-1.03-1.715zM7.99 1.78l1.03 1.715.001-.002-1.03-1.713zm1.65.37L7.975 3.26v.001L9.64 2.152zm3.52 5.285l-1.665 1.108v.001l1.665-1.11zm2.954 4.43l1.668-1.103-.004-.006-1.664 1.11zm-.267 1.648l1.228 1.579.006-.005-1.234-1.574zm-3.637 2.83l1.214 1.588.007-.005.007-.005-1.228-1.579zm-.742 3.592l1.752-.964-.003-.007-.004-.007-1.745.978zm.289.525l1.756-.957-.004-.007-1.752.964zm6.933 8.847l-1.414 1.414 1.414-1.414zm8.846 6.932l.965-1.752-.007-.004-.958 1.756zm.526.29l.978-1.745-.007-.003-.006-.004-.965 1.752zm3.593-.742l-1.579-1.228-.005.007-.005.007 1.589 1.214zm2.829-3.637l-1.573-1.235-.006.007 1.579 1.228zm1.648-.267l1.11-1.664-.008-.005-1.102 1.67zm9.714 6.48l-1.11 1.663.004.002 1.106-1.666zm2.004-2.998l-9.715-6.48-2.22 3.329 9.716 6.479 2.22-3.328zm-9.721-6.483a4.836 4.836 0 00-6.476 1.051l3.15 2.466a.836.836 0 011.119-.181l2.207-3.336zm-6.48 1.056l-2.83 3.64 3.158 2.455 2.83-3.639-3.158-2.456zm-2.845 3.658a.79.79 0 011.014-.213l-1.942 3.497a3.21 3.21 0 004.116-.866l-3.188-2.418zm1.009-.216l-.539-.297-1.93 3.503.537.297 1.932-3.503zm-.547-.301c-1.636-.892-3.698-1.992-8.021-6.317l-2.83 2.828c4.625 4.625 7.004 5.947 8.937 7l1.914-3.511zm-8.021-6.317c-4.324-4.326-5.427-6.39-6.32-8.024l-3.51 1.918c1.053 1.928 2.377 4.308 7 8.934l2.83-2.828zm-6.321-8.027l-.295-.538-3.508 1.923.295.539 3.508-1.924zm-.306-.558a.79.79 0 01-.209 1.014l-2.428-3.178a3.211 3.211 0 00-.849 4.127l3.486-1.963zm-.195 1.003l3.636-2.829-2.456-3.157-3.636 2.83 2.456 3.157zm3.642-2.833a4.837 4.837 0 001.052-6.474L15.78 12.08a.837.837 0 01-.182 1.12l2.467 3.15zm1.048-6.48L12.633.151l-3.327 2.22 6.479 9.714 3.328-2.219zM12.635.153a4.82 4.82 0 00-6.498-1.463l2.06 3.429a.82.82 0 011.107.249L12.635.154zM6.137-1.309l-4.062 2.44 2.06 3.43L8.196 2.12l-2.06-3.429zm-4.046 2.43a7.73 7.73 0 00-3.525 4.576l3.85 1.08A3.73 3.73 0 014.119 4.57L2.091 1.122zm-3.528 4.587c-1.733 6.313-.102 16.22 13.703 30.027l2.829-2.829C1.796 19.606 1.227 11.115 2.42 6.766l-3.857-1.058zm13.703 30.027C23.24 46.708 31.745 49.999 38.002 49.999v-4c-4.775 0-12.321-2.508-22.907-13.093l-2.829 2.829zm25.727 14.264a16.172 16.172 0 004.29-.56l-1.044-3.862a12.17 12.17 0 01-3.229.422l-.017 4zm4.308-.566a7.725 7.725 0 004.576-3.526l-3.449-2.026a3.725 3.725 0 01-2.206 1.7l1.08 3.852zm4.566-3.508l2.442-4.06-3.427-2.062-2.443 4.06 3.428 2.062zm2.442-4.06a4.821 4.821 0 00-1.461-6.5l-2.215 3.33a.821.821 0 01.249 1.108l3.427 2.062zm-4.807-2.88l-2.437 4.062 3.43 2.058 2.437-4.063-3.43-2.058zm-2.449 4.082c-.278.475-.729.825-1.26.976l1.094 3.848a6.134 6.134 0 003.62-2.806l-3.454-2.018zm-1.242.971c-3.913 1.075-11.8.521-24.584-12.263l-2.829 2.828c13.236 13.236 22.543 14.92 28.472 13.292l-1.06-3.857zM16.227 31.775C3.442 18.99 2.889 11.104 3.963 7.19L.106 6.131c-1.628 5.93.057 15.236 13.292 28.472l2.829-2.829zM3.958 7.206a2.14 2.14 0 01.979-1.263L2.918 2.491A6.14 6.14 0 00.11 6.114l3.848 1.093zm.998-1.274L9.02 3.496 6.961.066 2.9 2.503l2.057 3.43zm4.065-2.439a.776.776 0 01-1.046-.235l3.33-2.215A3.224 3.224 0 006.96.067l2.062 3.427zM7.976 3.26l3.52 5.284 3.328-2.217-3.52-5.284L7.977 3.26zm3.52 5.285l2.954 4.43 3.328-2.218-2.954-4.43-3.328 2.218zm2.95 4.424a.769.769 0 01.166-1.029l2.469 3.148a3.231 3.231 0 00.701-4.325l-3.336 2.206zm.173-1.034l-3.637 2.83 2.456 3.157 3.637-2.83-2.456-3.157zm-3.624 2.82a4.8 4.8 0 00-1.271 6.16l3.489-1.957a.8.8 0 01.212-1.026l-2.43-3.178zM9.716 20.9l.289.524 3.504-1.928-.289-.525L9.716 20.9zm.285.517c1.102 2.02 2.483 4.512 7.275 9.304l2.829-2.829c-4.488-4.487-5.649-6.66-6.592-8.39l-3.512 1.915zm7.275 9.304c4.792 4.791 7.283 6.173 9.303 7.274l1.915-3.512c-1.729-.943-3.901-2.103-8.39-6.59l-2.828 2.828zm9.295 7.27l.525.29 1.93-3.504-.524-.29-1.93 3.504zm.513.282a4.8 4.8 0 006.16-1.27l-3.178-2.43a.8.8 0 01-1.026.211l-1.956 3.49zm6.15-1.258l2.829-3.637-3.158-2.456-2.829 3.637 3.157 2.456zm2.823-3.63a.768.768 0 01-1.027.167l2.204-3.338a3.232 3.232 0 00-4.323.701l3.146 2.47zm-1.035.162l9.715 6.479 2.219-3.328-9.715-6.479-2.219 3.328zm9.718 6.481a.777.777 0 01-.236-1.048l3.426 2.065a3.223 3.223 0 00-.978-4.35L44.74 40.03z" mask="url(#da)"/><path d="M2 5l6.5-4 1.5.5 7 10v2l-4.5 3-.5 2 2 4.5 7 7.5 7.5 5.5h2l3.5-4.5 2-.5 10.5 6.5 1 2-4 6.5-2.5 1h-4.5l-3.5-.5-8.5-4-10-8-9-11-4-8.5L1 9.5 2 5zM42.397 21.602a.8.8 0 11-1.6 0c-.009-7.506-6.092-13.59-13.598-13.598a.8.8 0 110-1.6c8.39.01 15.188 6.809 15.198 15.198zm0 0l-.8.001h-.2 1z"/><path d="M37.597 21.602a.8.8 0 11-1.6 0 8.81 8.81 0 00-8.798-8.799.8.8 0 110-1.6c5.74.007 10.391 4.659 10.398 10.4zm0 0l-.8.001h-.2 1z"/><path d="M32.798 21.602a.8.8 0 01-1.6 0 4.004 4.004 0 00-4-4 .8.8 0 110-1.599 5.606 5.606 0 015.6 5.6zm0 0l-.8.001h-.2 1z"/></svg>