<?xml version="1.0" encoding="utf-8"?><svg viewBox="0 0 48 48" xmlns="http://www.w3.org/2000/svg" xmlns:xlink="http://www.w3.org/1999/xlink"><style>:root>svg{display:none}:root>svg:target{display:block}</style><svg viewBox="0 0 29 29" id="example" xmlns="http://www.w3.org/2000/svg"><path d="M28.24 22.372l-5.87-3.915a1.713 1.713 0 00-2.294.373l-1.71 2.199a.73.73 0 01-.937.197l-.325-.18c-1.079-.587-2.42-1.319-5.123-4.023-2.703-2.704-3.436-4.046-4.024-5.122l-.178-.326a.732.732 0 01.193-.94l2.197-1.71c.703-.55.865-1.548.373-2.293L6.628.762A1.704 1.704 0 004.33.245L1.876 1.719A3.462 3.462 0 00.297 3.77c-.884 3.22-.219 8.778 7.969 16.966C14.779 27.247 19.627 29 22.96 29a8.56 8.56 0 002.271-.297 3.46 3.46 0 002.05-1.579l1.475-2.453a1.704 1.704 0 00-.517-2.298zm-.317 1.802l-1.472 2.455a2.497 2.497 0 01-1.474 1.142c-2.973.817-8.167.14-16.028-7.72C1.09 12.191.413 6.997 1.23 4.024a2.501 2.501 0 011.144-1.476l2.455-1.472a.74.74 0 01.997.224L7.95 4.492 9.736 7.17a.744.744 0 01-.162.996L7.377 9.874a1.691 1.691 0 00-.448 2.17l.175.318c.617 1.132 1.385 2.542 4.189 5.344 2.803 2.803 4.212 3.571 5.344 4.189l.317.175c.735.412 1.66.22 2.171-.448l1.71-2.198a.744.744 0 01.995-.16l5.87 3.914c.329.218.428.658.223.996zM16.433 4.836a8.225 8.225 0 018.215 8.215.483.483 0 10.967 0 9.192 9.192 0 00-9.182-9.182.483.483 0 100 .967z"/><path d="M16.433 7.735a5.322 5.322 0 015.316 5.316.483.483 0 00.966 0 6.29 6.29 0 00-6.282-6.282.483.483 0 100 .966z"/><path d="M16.433 10.635a2.42 2.42 0 012.416 2.416.483.483 0 10.967 0 3.387 3.387 0 00-3.383-3.383.483.483 0 100 .967z"/></svg><svg viewBox="0 0 9 16" id="icon__arrow-btn" xmlns="http://www.w3.org/2000/svg"><path d="M.293 7.293a1 1 0 000 1.414l6.364 6.364a1 1 0 001.414-1.414L2.414 8l5.657-5.657A1 1 0 006.657.93L.293 7.293zM1.5 7H1v2h.5V7z"/></svg><svg viewBox="0 0 12 12" id="icon__close" xmlns="http://www.w3.org/2000/svg"><g clip-path="url(#cclip0)"><path d="M7.1 6.013l4.672-4.673a.777.777 0 10-1.1-1.099L6 4.914 1.327.24a.777.777 0 10-1.099 1.1l4.673 4.672-4.673 4.673a.776.776 0 101.1 1.1L6 7.111l4.673 4.673a.775.775 0 001.099 0 .777.777 0 000-1.1L7.099 6.014z"/></g><defs><clipPath id="cclip0"><path d="M0 0h12v12H0z"/></clipPath></defs></svg><svg viewBox="0 0 48 48" id="icon__phone" xmlns="http://www.w3.org/2000/svg"><path d="M37.025 30.55l9.715 6.48a2.821 2.821 0 01.856 3.804l-2.443 4.06a5.725 5.725 0 01-3.392 2.613c-1.225.332-2.49.497-3.76.492-5.515 0-13.54-2.9-24.32-13.678C.129 20.767-.972 11.568.49 6.237a5.73 5.73 0 012.614-3.391L7.167.406a2.82 2.82 0 013.803.855l6.479 9.716a2.837 2.837 0 01-.618 3.797l-3.636 2.829a1.211 1.211 0 00-.32 1.557l.295.538c.973 1.781 2.186 4.003 6.66 8.479 4.474 4.475 6.694 5.686 8.479 6.659l.538.296a1.21 1.21 0 001.551-.326l2.83-3.639a2.836 2.836 0 013.797-.616zM42.397 21.602a.8.8 0 11-1.6 0c-.009-7.506-6.092-13.59-13.598-13.598a.8.8 0 110-1.6c8.39.01 15.188 6.809 15.198 15.198zm0 0l-.8.001h-.2 1z"/><path d="M37.597 21.602a.8.8 0 11-1.6 0 8.81 8.81 0 00-8.798-8.799.8.8 0 110-1.6c5.74.007 10.391 4.659 10.398 10.4zm0 0l-.8.001h-.2 1z"/><path d="M32.798 21.602a.8.8 0 01-1.6 0 4.004 4.004 0 00-4-4 .8.8 0 110-1.599 5.606 5.606 0 015.6 5.6zm0 0l-.8.001h-.2 1z"/></svg><svg viewBox="0 0 22 22" id="icon__search" xmlns="http://www.w3.org/2000/svg"><path d="M15.723 13.836h-1l-.346-.345a8.099 8.099 0 001.975-5.315 8.176 8.176 0 10-8.176 8.176 8.126 8.126 0 005.315-1.968l.345.346v.993L20.127 22 22 20.126l-6.277-6.29zm-7.547 0a5.66 5.66 0 11.001-11.321 5.66 5.66 0 010 11.321z"/></svg><svg viewBox="0 0 22 22" id="icon__telegram" xmlns="http://www.w3.org/2000/svg"><g clip-path="url(#fclip0)"><path d="M8.762 13.757l-.344 4.84c.492 0 .705-.212.96-.466l2.309-2.206 4.782 3.502c.877.49 1.495.232 1.732-.806L21.34 3.91c.279-1.297-.468-1.804-1.323-1.486L1.566 9.49C.306 9.98.326 10.68 1.352 11l4.717 1.466L17.026 5.61c.516-.341.985-.152.599.19l-8.863 7.958z"/></g><defs><clipPath id="fclip0"><path transform="translate(.6 .6)" d="M0 0h20.8v20.8H0z"/></clipPath></defs></svg><svg viewBox="0 0 22 22" id="icon__viber" xmlns="http://www.w3.org/2000/svg"><g clip-path="url(#gclip0)"><path d="M11 2.28c.239.18.448.2 1.073.235 1.83.105 2.99.496 4.282 1.443 1.58 1.157 2.571 2.77 2.947 4.794.097.524.145.968.177 1.639.02.45.036.624.138.82a.936.936 0 00.843.482.927.927 0 00.727-.334c.227-.277.226-.535.204-1.09-.065-1.72-.441-3.266-1.118-4.593-.482-.945-.943-1.564-1.761-2.366-.872-.848-1.545-1.323-2.572-1.813-1.088-.52-1.857-.684-2.984-.821-.228-.026-.656-.06-.953-.07-.566-.019-.787-.003-1.048.229a.932.932 0 00-.3.736.92.92 0 00.345.71z"/><path d="M16.705 9.717c0 .487.04.944.52 1.18.132.069.304.103.471.103a.924.924 0 00.404-.083c.195-.1.39-.31.467-.5.097-.247.053-1.128.025-1.376a6.746 6.746 0 00-1.115-3.032c-1.087-1.578-2.715-2.532-4.838-2.836-.72-.106-1.255-.144-1.57.337a.93.93 0 00.077 1.156c.232.264.566.324.86.347.844.067 1.789.343 2.409.704a4.65 4.65 0 011.727 1.755c.358.64.563 1.458.563 2.245z"/><path d="M14.858 6.74c-.474-.435-1.03-.707-1.747-.857a4.978 4.978 0 00-.616-.074c-.3-.019-.422-.015-.635.088a.93.93 0 00-.494.655.926.926 0 00.203.792c.216.247.438.309.885.362.746.09 1.167.34 1.405.839.12.254.188.533.228.934.04.375.114.616.382.814.168.127.38.19.591.19.23 0 .46-.076.626-.225l.002-.001c.345-.312.36-.698.266-1.301-.145-.966-.482-1.65-1.096-2.216z"/><path d="M21.398 17.306a1.7 1.7 0 00-.388-1.023c-.234-.28-1.726-1.48-2.392-1.943-.518-.358-1.337-.862-1.72-1.059-.565-.286-1.133-.336-1.693-.147-.122.041-.21.078-.292.122-.283.151-.49.39-.895.894-.433.531-.523.635-.522.635-.041.025-.106.06-.185.097-.322.149-.85.026-1.709-.4-.725-.355-1.375-.813-2.11-1.481-.626-.567-1.256-1.302-1.605-1.872-.485-.791-.779-1.707-.782-2.132 0-.165.071-.403.148-.534l.034-.036c.023-.022.048-.047.083-.078.12-.11.295-.258.477-.404.8-.639 1.052-.898 1.187-1.379.131-.444.016-.992-.36-1.722C8.11 3.754 6.328 1.436 5.585.947A2.575 2.575 0 005.12.716C4.815.606 4.376.569 4.104.628c-.377.078-.791.32-1.705.994-.5.372-1.272 1.1-1.481 1.448-.494.843-.368 1.574.08 2.799a23.432 23.432 0 001.624 3.494l.034.058c.131.23.265.46.406.69l.037.057c.14.226.28.452.429.676l.233.345a29.366 29.366 0 00.81 1.136c2.007 2.655 4.32 4.786 7.068 6.515l.113.072c.398.248.823.497 1.261.738l.171.093c.454.246.885.465 1.318.671l.135.063c.51.24.979.447 1.428.631.545.224.797.292 1.18.292.068 0 .14-.002.22-.006.246-.012.468-.05.678-.114.295-.091.59-.244.928-.48a4.095 4.095 0 00.417-.326c.385-.34.827-.831 1.183-1.316.19-.26.442-.635.568-.958.118-.302.171-.603.159-.894z"/></g><defs><clipPath id="gclip0"><path transform="translate(.6 .6)" d="M0 0h20.8v20.8H0z"/></clipPath></defs></svg><svg viewBox="0 0 22 22" id="icon__whatsapp" xmlns="http://www.w3.org/2000/svg"><g clip-path="url(#hclip0)"><path d="M11.003.6h-.005C5.263.6.6 5.264.6 11c0 2.275.733 4.384 1.98 6.096l-1.296 3.863 3.997-1.278a10.31 10.31 0 005.722 1.719C16.737 21.4 21.4 16.734 21.4 11S16.737.6 11.003.6zm6.051 14.686c-.25.709-1.246 1.296-2.04 1.468-.544.115-1.254.208-3.643-.783-3.057-1.266-5.025-4.372-5.178-4.573-.147-.202-1.235-1.645-1.235-3.137 0-1.493.758-2.22 1.063-2.531.251-.256.666-.373 1.064-.373.128 0 .244.006.348.011.305.013.459.032.66.514.251.604.862 2.097.935 2.25.074.154.148.362.044.563-.097.208-.183.3-.336.477-.154.177-.3.312-.453.502-.14.165-.299.342-.122.647.177.3.788 1.296 1.687 2.097 1.161 1.034 2.102 1.364 2.44 1.504.25.104.549.08.732-.115.233-.251.52-.667.813-1.077.208-.293.47-.33.746-.226.28.098 1.767.832 2.072.984.306.154.507.226.581.355.073.129.073.733-.178 1.443z"/></g><defs><clipPath id="hclip0"><path transform="translate(.6 .6)" d="M0 0h20.8v20.8H0z"/></clipPath></defs></svg></svg>