<?xml version="1.0" encoding="utf-8"?><svg viewBox="0 0 48 48" xmlns="http://www.w3.org/2000/svg" xmlns:xlink="http://www.w3.org/1999/xlink"><style>:root>svg{display:none}:root>svg:target{display:block}</style><svg viewBox="0 0 29 29" id="example" xmlns="http://www.w3.org/2000/svg"><path d="M28.24 22.372l-5.87-3.915a1.713 1.713 0 00-2.294.373l-1.71 2.199a.73.73 0 01-.937.197l-.325-.18c-1.079-.587-2.42-1.319-5.123-4.023-2.703-2.704-3.436-4.046-4.024-5.122l-.178-.326a.732.732 0 01.193-.94l2.197-1.71c.703-.55.865-1.548.373-2.293L6.628.762A1.704 1.704 0 004.33.245L1.876 1.719A3.462 3.462 0 00.297 3.77c-.884 3.22-.219 8.778 7.969 16.966C14.779 27.247 19.627 29 22.96 29a8.56 8.56 0 002.271-.297 3.46 3.46 0 002.05-1.579l1.475-2.453a1.704 1.704 0 00-.517-2.298zm-.317 1.802l-1.472 2.455a2.497 2.497 0 01-1.474 1.142c-2.973.817-8.167.14-16.028-7.72C1.09 12.191.413 6.997 1.23 4.024a2.501 2.501 0 011.144-1.476l2.455-1.472a.74.74 0 01.997.224L7.95 4.492 9.736 7.17a.744.744 0 01-.162.996L7.377 9.874a1.691 1.691 0 00-.448 2.17l.175.318c.617 1.132 1.385 2.542 4.189 5.344 2.803 2.803 4.212 3.571 5.344 4.189l.317.175c.735.412 1.66.22 2.171-.448l1.71-2.198a.744.744 0 01.995-.16l5.87 3.914c.329.218.428.658.223.996zM16.433 4.836a8.225 8.225 0 018.215 8.215.483.483 0 10.967 0 9.192 9.192 0 00-9.182-9.182.483.483 0 100 .967z"/><path d="M16.433 7.735a5.322 5.322 0 015.316 5.316.483.483 0 00.966 0 6.29 6.29 0 00-6.282-6.282.483.483 0 100 .966z"/><path d="M16.433 10.635a2.42 2.42 0 012.416 2.416.483.483 0 10.967 0 3.387 3.387 0 00-3.383-3.383.483.483 0 100 .967z"/></svg><svg viewBox="0 0 9 16" id="icon__arrow-btn" xmlns="http://www.w3.org/2000/svg"><path d="M.293 7.293a1 1 0 000 1.414l6.364 6.364a1 1 0 001.414-1.414L2.414 8l5.657-5.657A1 1 0 006.657.93L.293 7.293zM1.5 7H1v2h.5V7z"/></svg><svg viewBox="0 0 12 12" id="icon__close" xmlns="http://www.w3.org/2000/svg"><g clip-path="url(#cclip0)"><path d="M7.1 6.013l4.672-4.673a.777.777 0 10-1.1-1.099L6 4.914 1.327.24a.777.777 0 10-1.099 1.1l4.673 4.672-4.673 4.673a.776.776 0 101.1 1.1L6 7.111l4.673 4.673a.775.775 0 001.099 0 .777.777 0 000-1.1L7.099 6.014z"/></g><defs><clipPath id="cclip0"><path d="M0 0h12v12H0z"/></clipPath></defs></svg><svg viewBox="0 0 48 48" id="icon__phone" xmlns="http://www.w3.org/2000/svg"><mask id="da"><path d="M46.74 37.03l-9.715-6.48a2.836 2.836 0 00-3.797.617l-2.83 3.639a1.21 1.21 0 01-1.55.326l-.54-.296c-1.784-.973-4.004-2.184-8.478-6.66-4.474-4.475-5.687-6.697-6.66-8.478l-.295-.538a1.211 1.211 0 01.32-1.557l3.636-2.83a2.837 2.837 0 00.618-3.796l-6.48-9.716A2.82 2.82 0 007.168.406l-4.062 2.44A5.73 5.73 0 00.49 6.237c-1.463 5.33-.362 14.53 13.19 28.084C24.46 45.1 32.486 47.999 38 47.999c1.27.005 2.535-.16 3.76-.492a5.725 5.725 0 003.392-2.613l2.443-4.06a2.821 2.821 0 00-.856-3.804zm-.523 2.983l-2.437 4.063a4.134 4.134 0 01-2.44 1.89c-4.92 1.352-13.518.233-26.528-12.777C1.802 20.179.683 11.582 2.034 6.66a4.14 4.14 0 011.894-2.443L7.99 1.78a1.224 1.224 0 011.65.37l3.52 5.285 2.954 4.43a1.231 1.231 0 01-.267 1.648l-3.637 2.83a2.8 2.8 0 00-.742 3.592l.289.525c1.022 1.875 2.293 4.207 6.933 8.847 4.64 4.639 6.972 5.91 8.846 6.932l.526.29a2.8 2.8 0 003.593-.742l2.829-3.637a1.232 1.232 0 011.648-.267l9.714 6.48c.546.361.71 1.089.371 1.65z"/></mask><path d="M46.74 37.03l-1.11 1.664.003.001 1.107-1.665zm-9.715-6.48l1.11-1.663-.006-.004-1.104 1.668zm-3.797.617l-1.575-1.233-.004.005 1.579 1.228zm-2.83 3.639l-1.579-1.228-.007.01-.008.01 1.594 1.208zm-1.55.326l.97-1.748-.005-.003-.966 1.751zm-.54-.296l.966-1.752-.008-.004-.957 1.756zM13.17 19.698l1.755-.959-.001-.003-1.754.962zm-.295-.538l1.754-.962-.006-.01-.005-.01-1.743.982zm.32-1.557l1.214 1.59.007-.006.007-.006-1.228-1.578zm3.636-2.83l1.228 1.58.006-.005-1.234-1.574zm.618-3.796l1.668-1.103-.004-.007-1.664 1.11zm-6.48-9.716L9.305 2.37l.002.002 1.664-1.11zM7.168.406l1.03 1.714L7.168.406zm-4.062 2.44L4.118 4.57l.008-.005.008-.005-1.03-1.714zM.49 6.237l-1.925-.54-.003.011 1.928.53zm13.19 28.084l-1.415 1.414 1.415-1.414zM38 47.999l.01-2H38v2zm3.76-.492l.522 1.931.01-.002.008-.003-.54-1.926zm3.392-2.613l-1.714-1.03-.005.008-.006.01 1.725 1.012zm2.443-4.06l-1.714-1.031 1.714 1.031zm-1.379-.82l-1.713-1.033-.002.003 1.715 1.03zm-2.437 4.062l-1.715-1.029-.006.01-.006.01 1.727 1.009zm-2.44 1.89l.53 1.93.008-.003.009-.002-.547-1.924zM2.034 6.662L.11 6.114l-.002.009-.002.008 1.928.53zm1.894-2.443l1.009 1.726.01-.005.01-.006-1.03-1.715zM7.99 1.78l1.03 1.715.001-.002-1.03-1.713zm1.65.37L7.975 3.26v.001L9.64 2.152zm3.52 5.285l-1.665 1.108v.001l1.665-1.11zm2.954 4.43l1.668-1.103-.004-.006-1.664 1.11zm-.267 1.648l1.228 1.579.006-.005-1.234-1.574zm-3.637 2.83l1.214 1.588.007-.005.007-.005-1.228-1.579zm-.742 3.592l1.752-.964-.003-.007-.004-.007-1.745.978zm.289.525l1.756-.957-.004-.007-1.752.964zm6.933 8.847l-1.414 1.414 1.414-1.414zm8.846 6.932l.965-1.752-.007-.004-.958 1.756zm.526.29l.978-1.745-.007-.003-.006-.004-.965 1.752zm3.593-.742l-1.579-1.228-.005.007-.005.007 1.589 1.214zm2.829-3.637l-1.573-1.235-.006.007 1.579 1.228zm1.648-.267l1.11-1.664-.008-.005-1.102 1.67zm9.714 6.48l-1.11 1.663.004.002 1.106-1.666zm2.004-2.998l-9.715-6.48-2.22 3.329 9.716 6.479 2.22-3.328zm-9.721-6.483a4.836 4.836 0 00-6.476 1.051l3.15 2.466a.836.836 0 011.119-.181l2.207-3.336zm-6.48 1.056l-2.83 3.64 3.158 2.455 2.83-3.639-3.158-2.456zm-2.845 3.658a.79.79 0 011.014-.213l-1.942 3.497a3.21 3.21 0 004.116-.866l-3.188-2.418zm1.009-.216l-.539-.297-1.93 3.503.537.297 1.932-3.503zm-.547-.301c-1.636-.892-3.698-1.992-8.021-6.317l-2.83 2.828c4.625 4.625 7.004 5.947 8.937 7l1.914-3.511zm-8.021-6.317c-4.324-4.326-5.427-6.39-6.32-8.024l-3.51 1.918c1.053 1.928 2.377 4.308 7 8.934l2.83-2.828zm-6.321-8.027l-.295-.538-3.508 1.923.295.539 3.508-1.924zm-.306-.558a.79.79 0 01-.209 1.014l-2.428-3.178a3.211 3.211 0 00-.849 4.127l3.486-1.963zm-.195 1.003l3.636-2.829-2.456-3.157-3.636 2.83 2.456 3.157zm3.642-2.833a4.837 4.837 0 001.052-6.474L15.78 12.08a.837.837 0 01-.182 1.12l2.467 3.15zm1.048-6.48L12.633.151l-3.327 2.22 6.479 9.714 3.328-2.219zM12.635.153a4.82 4.82 0 00-6.498-1.463l2.06 3.429a.82.82 0 011.107.249L12.635.154zM6.137-1.309l-4.062 2.44 2.06 3.43L8.196 2.12l-2.06-3.429zm-4.046 2.43a7.73 7.73 0 00-3.525 4.576l3.85 1.08A3.73 3.73 0 014.119 4.57L2.091 1.122zm-3.528 4.587c-1.733 6.313-.102 16.22 13.703 30.027l2.829-2.829C1.796 19.606 1.227 11.115 2.42 6.766l-3.857-1.058zm13.703 30.027C23.24 46.708 31.745 49.999 38.002 49.999v-4c-4.775 0-12.321-2.508-22.907-13.093l-2.829 2.829zm25.727 14.264a16.172 16.172 0 004.29-.56l-1.044-3.862a12.17 12.17 0 01-3.229.422l-.017 4zm4.308-.566a7.725 7.725 0 004.576-3.526l-3.449-2.026a3.725 3.725 0 01-2.206 1.7l1.08 3.852zm4.566-3.508l2.442-4.06-3.427-2.062-2.443 4.06 3.428 2.062zm2.442-4.06a4.821 4.821 0 00-1.461-6.5l-2.215 3.33a.821.821 0 01.249 1.108l3.427 2.062zm-4.807-2.88l-2.437 4.062 3.43 2.058 2.437-4.063-3.43-2.058zm-2.449 4.082c-.278.475-.729.825-1.26.976l1.094 3.848a6.134 6.134 0 003.62-2.806l-3.454-2.018zm-1.242.971c-3.913 1.075-11.8.521-24.584-12.263l-2.829 2.828c13.236 13.236 22.543 14.92 28.472 13.292l-1.06-3.857zM16.227 31.775C3.442 18.99 2.889 11.104 3.963 7.19L.106 6.131c-1.628 5.93.057 15.236 13.292 28.472l2.829-2.829zM3.958 7.206a2.14 2.14 0 01.979-1.263L2.918 2.491A6.14 6.14 0 00.11 6.114l3.848 1.093zm.998-1.274L9.02 3.496 6.961.066 2.9 2.503l2.057 3.43zm4.065-2.439a.776.776 0 01-1.046-.235l3.33-2.215A3.224 3.224 0 006.96.067l2.062 3.427zM7.976 3.26l3.52 5.284 3.328-2.217-3.52-5.284L7.977 3.26zm3.52 5.285l2.954 4.43 3.328-2.218-2.954-4.43-3.328 2.218zm2.95 4.424a.769.769 0 01.166-1.029l2.469 3.148a3.231 3.231 0 00.701-4.325l-3.336 2.206zm.173-1.034l-3.637 2.83 2.456 3.157 3.637-2.83-2.456-3.157zm-3.624 2.82a4.8 4.8 0 00-1.271 6.16l3.489-1.957a.8.8 0 01.212-1.026l-2.43-3.178zM9.716 20.9l.289.524 3.504-1.928-.289-.525L9.716 20.9zm.285.517c1.102 2.02 2.483 4.512 7.275 9.304l2.829-2.829c-4.488-4.487-5.649-6.66-6.592-8.39l-3.512 1.915zm7.275 9.304c4.792 4.791 7.283 6.173 9.303 7.274l1.915-3.512c-1.729-.943-3.901-2.103-8.39-6.59l-2.828 2.828zm9.295 7.27l.525.29 1.93-3.504-.524-.29-1.93 3.504zm.513.282a4.8 4.8 0 006.16-1.27l-3.178-2.43a.8.8 0 01-1.026.211l-1.956 3.49zm6.15-1.258l2.829-3.637-3.158-2.456-2.829 3.637 3.157 2.456zm2.823-3.63a.768.768 0 01-1.027.167l2.204-3.338a3.232 3.232 0 00-4.323.701l3.146 2.47zm-1.035.162l9.715 6.479 2.219-3.328-9.715-6.479-2.219 3.328zm9.718 6.481a.777.777 0 01-.236-1.048l3.426 2.065a3.223 3.223 0 00-.978-4.35L44.74 40.03z" mask="url(#da)"/><path d="M2 5l6.5-4 1.5.5 7 10v2l-4.5 3-.5 2 2 4.5 7 7.5 7.5 5.5h2l3.5-4.5 2-.5 10.5 6.5 1 2-4 6.5-2.5 1h-4.5l-3.5-.5-8.5-4-10-8-9-11-4-8.5L1 9.5 2 5zM42.397 21.602a.8.8 0 11-1.6 0c-.009-7.506-6.092-13.59-13.598-13.598a.8.8 0 110-1.6c8.39.01 15.188 6.809 15.198 15.198zm0 0l-.8.001h-.2 1z"/><path d="M37.597 21.602a.8.8 0 11-1.6 0 8.81 8.81 0 00-8.798-8.799.8.8 0 110-1.6c5.74.007 10.391 4.659 10.398 10.4zm0 0l-.8.001h-.2 1z"/><path d="M32.798 21.602a.8.8 0 01-1.6 0 4.004 4.004 0 00-4-4 .8.8 0 110-1.599 5.606 5.606 0 015.6 5.6zm0 0l-.8.001h-.2 1z"/></svg><svg viewBox="0 0 22 22" id="icon__telegram" xmlns="http://www.w3.org/2000/svg"><g clip-path="url(#eclip0)"><path d="M8.762 13.757l-.344 4.84c.492 0 .705-.212.96-.466l2.309-2.206 4.782 3.502c.877.49 1.495.232 1.732-.806L21.34 3.91c.279-1.297-.468-1.804-1.323-1.486L1.566 9.49C.306 9.98.326 10.68 1.352 11l4.717 1.466L17.026 5.61c.516-.341.985-.152.599.19l-8.863 7.958z"/></g><defs><clipPath id="eclip0"><path transform="translate(.6 .6)" d="M0 0h20.8v20.8H0z"/></clipPath></defs></svg><svg viewBox="0 0 22 22" id="icon__viber" xmlns="http://www.w3.org/2000/svg"><g clip-path="url(#fclip0)"><path d="M11 2.28c.239.18.448.2 1.073.235 1.83.105 2.99.496 4.282 1.443 1.58 1.157 2.571 2.77 2.947 4.794.097.524.145.968.177 1.639.02.45.036.624.138.82a.936.936 0 00.843.482.927.927 0 00.727-.334c.227-.277.226-.535.204-1.09-.065-1.72-.441-3.266-1.118-4.593-.482-.945-.943-1.564-1.761-2.366-.872-.848-1.545-1.323-2.572-1.813-1.088-.52-1.857-.684-2.984-.821-.228-.026-.656-.06-.953-.07-.566-.019-.787-.003-1.048.229a.932.932 0 00-.3.736.92.92 0 00.345.71z"/><path d="M16.705 9.717c0 .487.04.944.52 1.18.132.069.304.103.471.103a.924.924 0 00.404-.083c.195-.1.39-.31.467-.5.097-.247.053-1.128.025-1.376a6.746 6.746 0 00-1.115-3.032c-1.087-1.578-2.715-2.532-4.838-2.836-.72-.106-1.255-.144-1.57.337a.93.93 0 00.077 1.156c.232.264.566.324.86.347.844.067 1.789.343 2.409.704a4.65 4.65 0 011.727 1.755c.358.64.563 1.458.563 2.245z"/><path d="M14.858 6.74c-.474-.435-1.03-.707-1.747-.857a4.978 4.978 0 00-.616-.074c-.3-.019-.422-.015-.635.088a.93.93 0 00-.494.655.926.926 0 00.203.792c.216.247.438.309.885.362.746.09 1.167.34 1.405.839.12.254.188.533.228.934.04.375.114.616.382.814.168.127.38.19.591.19.23 0 .46-.076.626-.225l.002-.001c.345-.312.36-.698.266-1.301-.145-.966-.482-1.65-1.096-2.216z"/><path d="M21.398 17.306a1.7 1.7 0 00-.388-1.023c-.234-.28-1.726-1.48-2.392-1.943-.518-.358-1.337-.862-1.72-1.059-.565-.286-1.133-.336-1.693-.147-.122.041-.21.078-.292.122-.283.151-.49.39-.895.894-.433.531-.523.635-.522.635-.041.025-.106.06-.185.097-.322.149-.85.026-1.709-.4-.725-.355-1.375-.813-2.11-1.481-.626-.567-1.256-1.302-1.605-1.872-.485-.791-.779-1.707-.782-2.132 0-.165.071-.403.148-.534l.034-.036c.023-.022.048-.047.083-.078.12-.11.295-.258.477-.404.8-.639 1.052-.898 1.187-1.379.131-.444.016-.992-.36-1.722C8.11 3.754 6.328 1.436 5.585.947A2.575 2.575 0 005.12.716C4.815.606 4.376.569 4.104.628c-.377.078-.791.32-1.705.994-.5.372-1.272 1.1-1.481 1.448-.494.843-.368 1.574.08 2.799a23.432 23.432 0 001.624 3.494l.034.058c.131.23.265.46.406.69l.037.057c.14.226.28.452.429.676l.233.345a29.366 29.366 0 00.81 1.136c2.007 2.655 4.32 4.786 7.068 6.515l.113.072c.398.248.823.497 1.261.738l.171.093c.454.246.885.465 1.318.671l.135.063c.51.24.979.447 1.428.631.545.224.797.292 1.18.292.068 0 .14-.002.22-.006.246-.012.468-.05.678-.114.295-.091.59-.244.928-.48a4.095 4.095 0 00.417-.326c.385-.34.827-.831 1.183-1.316.19-.26.442-.635.568-.958.118-.302.171-.603.159-.894z"/></g><defs><clipPath id="fclip0"><path transform="translate(.6 .6)" d="M0 0h20.8v20.8H0z"/></clipPath></defs></svg><svg viewBox="0 0 22 22" id="icon__whatsapp" xmlns="http://www.w3.org/2000/svg"><g clip-path="url(#gclip0)"><path d="M11.003.6h-.005C5.263.6.6 5.264.6 11c0 2.275.733 4.384 1.98 6.096l-1.296 3.863 3.997-1.278a10.31 10.31 0 005.722 1.719C16.737 21.4 21.4 16.734 21.4 11S16.737.6 11.003.6zm6.051 14.686c-.25.709-1.246 1.296-2.04 1.468-.544.115-1.254.208-3.643-.783-3.057-1.266-5.025-4.372-5.178-4.573-.147-.202-1.235-1.645-1.235-3.137 0-1.493.758-2.22 1.063-2.531.251-.256.666-.373 1.064-.373.128 0 .244.006.348.011.305.013.459.032.66.514.251.604.862 2.097.935 2.25.074.154.148.362.044.563-.097.208-.183.3-.336.477-.154.177-.3.312-.453.502-.14.165-.299.342-.122.647.177.3.788 1.296 1.687 2.097 1.161 1.034 2.102 1.364 2.44 1.504.25.104.549.08.732-.115.233-.251.52-.667.813-1.077.208-.293.47-.33.746-.226.28.098 1.767.832 2.072.984.306.154.507.226.581.355.073.129.073.733-.178 1.443z"/></g><defs><clipPath id="gclip0"><path transform="translate(.6 .6)" d="M0 0h20.8v20.8H0z"/></clipPath></defs></svg></svg>