<svg width="48" height="48" fill="none" xmlns="http://www.w3.org/2000/svg"><path d="M44.8.8H3.2A3.205 3.205 0 000 4v26.4a.8.8 0 00.8.8h46.4a.8.8 0 00.8-.8V4C48 2.237 46.564.8 44.8.8zm1.6 28.8H1.6V4c0-.882.718-1.6 1.6-1.6h41.6c.882 0 1.6.718 1.6 1.6v25.6z" fill="#fff"/><path d="M47.2 29.6H.8a.8.8 0 00-.8.8v4c0 1.764 1.436 3.2 3.2 3.2h41.6c1.764 0 3.2-1.436 3.2-3.2v-4a.8.8 0 00-.8-.8zm-.8 4.8c0 .882-.718 1.6-1.6 1.6H3.2c-.882 0-1.6-.718-1.6-1.6v-3.2h44.8v3.2z" fill="#fff"/><path d="M26.4 32.8h-4.8a.8.8 0 000 1.6h4.8a.8.8 0 000-1.6zM44 4H4a.8.8 0 00-.8.8v25.6a.8.8 0 00.8.8h40a.8.8 0 00.8-.8V4.8A.8.8 0 0044 4zm-.8 25.6H4.8v-24h38.4v24zm-8.8 12.8H13.6a2.403 2.403 0 00-2.4 2.4c0 1.323 1.077 2.4 2.4 2.4h20.8c1.323 0 2.4-1.077 2.4-2.4s-1.077-2.4-2.4-2.4zm0 3.2H13.6a.8.8 0 010-1.6h20.8a.8.8 0 010 1.6z" fill="#fff"/><path d="M32.8 42.4c-2.655 0-4-1.884-4-5.6a.8.8 0 00-.8-.8h-8a.8.8 0 00-.8.8c0 3.716-1.346 5.6-4 5.6a.8.8 0 000 1.6h17.6a.8.8 0 000-1.6zm-13.703 0c.984-1.091 1.564-2.716 1.681-4.8h6.444c.116 2.084.696 3.709 1.682 4.8h-9.807zm19.13-18.029l-1.93-1.93 1.074-1.075a.8.8 0 00-.336-1.332l-8-2.4a.799.799 0 00-.996.996l2.4 8a.8.8 0 001.332.336l1.132-1.132 1.93 1.932a.798.798 0 001.132 0l2.262-2.264a.8.8 0 000-1.13zM35.4 26.07l-1.758-1.76a1.043 1.043 0 00-1.477 0l-.578.577L30 19.593l5.293 1.588-.62.619a.901.901 0 00-.263.64c0 .242.094.471.265.64l1.856 1.857-1.13 1.132zM33.6 7.2H11.2a.8.8 0 00-.8.8v4a.8.8 0 00.8.8h22.4a.8.8 0 00.8-.8V8a.8.8 0 00-.8-.8zm-.8 4H12V8.8h20.8v2.4zm-12 4.8h-6.4a.8.8 0 00-.8.8V20a.8.8 0 00.8.8h6.4a.8.8 0 00.8-.8v-3.2a.8.8 0 00-.8-.8zm-.8 3.2h-4.8v-1.6H20v1.6z" fill="#fff"/><path d="M33.6 7.2H11.2a.8.8 0 00-.8.8v15.2a.8.8 0 00.8.8h19.045a.8.8 0 00.766-1.03l-1.013-3.377 3.372 1.012a.798.798 0 001.03-.767V8a.8.8 0 00-.8-.8zm-.8 11.563l-3.766-1.13a.799.799 0 00-.996.997l1.131 3.77H12V8.8h20.8v9.963z" fill="#fff"/></svg>