<svg width="48" height="48" fill="none" xmlns="http://www.w3.org/2000/svg"><path d="M1.761 13.062l.01-.01c.4-.36 1.014-.36 1.394.02a.97.97 0 010 1.374 4.095 4.095 0 005.79 5.79.184.184 0 01.05-.038 18.07 18.07 0 015.488-5.04c-2.232-5.265.234-11.338 5.498-13.561 5.265-2.223 11.338.234 13.561 5.498a10.61 10.61 0 01.8 3.374c1.033-.293 1.862-.43 2.505-.41 1.033.01 1.794.653 1.91 1.599.069.42.02 1.033-.204 3.032l-.205 1.91c1.872 1.521 3.344 3.296 4.407 5.284l2.827.556A3.005 3.005 0 0148 25.384v6.269a2.997 2.997 0 01-2.408 2.944l-2.837.566a15.569 15.569 0 01-2.037 3.05 6.439 6.439 0 01-1.911 7.39 7.232 7.232 0 01-4.592 1.619 7.532 7.532 0 01-5.128-2.018l-.682-.644c-2.515.38-5.09.293-7.575-.234l-.965.927a7.114 7.114 0 01-4.943 1.94h-.234a7.243 7.243 0 01-5.05-2.233c-2.047-2.164-2.29-5.42-.673-7.974-1.832-2.555-2.798-5.48-2.798-8.501v-.771c.088-1.452.468-2.954 1.131-4.474a6.015 6.015 0 01-5.527-1.638 6.046 6.046 0 01-.01-8.54zM24.018 2.718a8.384 8.384 0 00-4.69 15.345c.079.058.157.175.215.175h8.91c.04 0 .088-.058.137-.097a8.416 8.416 0 003.812-6.444c.02-.224.02-.42.02-.595-.01-4.62-3.764-8.374-8.404-8.384zM10.857 36.264c.165.195.419.643.117 1.248a.843.843 0 01-.098.156c-1.413 1.843-1.335 4.338.185 5.947.966 1.004 2.272 1.628 3.685 1.628h.186a5.187 5.187 0 003.597-1.404l1.267-1.209a1.155 1.155 0 011.053-.292c2.506.594 5.099.672 7.643.243.059-.01.108-.01.166-.01.312-.01.605.108.829.322l.955.907a5.568 5.568 0 003.559 1.482 5.338 5.338 0 003.597-1.16 4.511 4.511 0 001.19-5.48 1.066 1.066 0 01-.108-.828.98.98 0 01.234-.458 14.172 14.172 0 002.281-3.373.988.988 0 01.185-.263c.186-.205.43-.332.693-.38l3.139-.634c.487-.098.838-.537.838-1.034v-6.288a1.035 1.035 0 00-.838-1.033l-3.15-.634a1.225 1.225 0 01-.691-.38.945.945 0 01-.186-.253c-.994-1.99-2.476-3.764-4.396-5.245-.03-.03-.059-.05-.088-.078a1.131 1.131 0 01-.331-.839c0-.039 0-.068.01-.107l.253-2.34c.087-.75.234-2.105.214-2.476h-.039c-.39-.01-1.14.059-2.525.507a10.258 10.258 0 01-2.778 5.742h.926c.536 0 .975.439.975.975a.978.978 0 01-.975.975H15.536a.978.978 0 01-.975-.975c0-.536.439-.975.975-.975h1.014a7.777 7.777 0 01-1.13-1.394c-2.253 1.365-4.105 3.198-5.382 5.303l-.692 1.336c-.712 1.472-1.122 2.964-1.219 4.329v.672c0 2.779.946 5.46 2.73 7.77z" fill="#fff"/><path d="M34.498 23.61a2.494 2.494 0 012.496 2.496 2.494 2.494 0 01-2.496 2.495 2.5 2.5 0 01-2.496-2.495 2.488 2.488 0 012.496-2.496zm0 3.051a.545.545 0 10-.546-.546.533.533 0 00.546.546zM24.018 5.194a5.904 5.904 0 015.907 5.908 5.929 5.929 0 01-5.907 5.908 5.904 5.904 0 01-5.908-5.908 5.904 5.904 0 015.908-5.908zm0 9.866a3.96 3.96 0 003.958-3.958 3.96 3.96 0 00-3.958-3.958 3.96 3.96 0 00-3.958 3.958 3.96 3.96 0 003.958 3.958z" fill="#fff"/></svg>