<svg width="48" height="48" fill="none" xmlns="http://www.w3.org/2000/svg"><g clip-path="url(#clip0)" fill="#fff"><path d="M15.25 18.713a.798.798 0 00-.659-.434l-6.73-.45a.785.785 0 00-.798.507l-4.851 12.4a.8.8 0 001.224.93l4.027-3.02 2.345.47a.8.8 0 00.904-.5c1.259-3.298 2.775-6.365 4.504-9.114a.8.8 0 00.035-.79zm-5.788 8.702l-2.036-.408a.806.806 0 00-.637.145L4.726 28.7l3.613-9.234 4.83.321a54.024 54.024 0 00-3.707 7.629zm20.709 12.724l-.45-6.73a.801.801 0 00-1.223-.625c-2.75 1.728-5.816 3.244-9.114 4.503a.799.799 0 00-.5.904l.47 2.345-3.02 4.026a.8.8 0 00.931 1.227l12.4-4.852a.8.8 0 00.506-.798zM19.3 43.273l1.546-2.063a.8.8 0 00.144-.637l-.407-2.036a53.984 53.984 0 007.628-3.707l.323 4.83-9.235 3.613zM23.197 24h-5.39a.801.801 0 00-.699.412l-6.765 12.156a.801.801 0 001.113 1.072l12.156-7.356a.8.8 0 00.385-.684v-4.8a.8.8 0 00-.8-.8zm-.8 5.15l-9.19 5.562 5.07-9.11V25.6h4.12v3.55z"/><path d="M47.96.771a.8.8 0 00-.732-.731C46.963.019 20.62-1.82 9.218 28.045a.8.8 0 00.181.851l3.804 3.804c.178.178.428.26.678.226a.803.803 0 00.588-.406l3.811-6.92h4.118v3.56l-6.96 4.394a.802.802 0 00-.14 1.242l3.804 3.804a.799.799 0 00.852.182C49.82 27.379 47.982 1.036 47.959.77zm-4.197 14.192c-2.807 6.946-9.23 16.387-23.897 22.138l-2.728-2.728 6.487-4.095a.802.802 0 00.373-.677v-4.8a.8.8 0 00-.8-.8h-5.392a.8.8 0 00-.7.415l-3.526 6.4-2.682-2.682C20.908 2.598 42.244 1.554 46.392 1.612c.03 1.865-.142 7.198-2.63 13.351zm-30.06 20.369a.798.798 0 00-.722-.314.8.8 0 00-.313-.722c-1.207-.911-2.763-1.215-4.273-.832a5.38 5.38 0 00-3.594 3L.072 46.867a.799.799 0 001.06 1.06l10.404-4.73a5.378 5.378 0 002.999-3.594c.383-1.508.08-3.065-.832-4.272zm-.718 3.878a3.79 3.79 0 01-2.11 2.532L2.41 45.588l3.847-8.464a3.787 3.787 0 013.42-2.222c.499 0 .986.106 1.43.314l-.762 1.347a.8.8 0 001.09 1.09l1.349-.761c.328.705.402 1.52.2 2.318z"/><path d="M47.96.772a.801.801 0 00-.732-.731c-.312-.025-7.727-.587-16.448 3.43a.8.8 0 00-.231 1.292l12.687 12.688a.8.8 0 001.293-.23c4.018-8.722 3.456-16.138 3.43-16.45zm-4.418 14.721L32.506 4.457c6.385-2.695 11.975-2.88 13.886-2.848.032 1.912-.148 7.485-2.85 13.884zm-8.214-2.822a6.907 6.907 0 00-9.756 0 6.907 6.907 0 000 9.757 6.876 6.876 0 004.878 2.017 6.88 6.88 0 004.878-2.017 6.907 6.907 0 000-9.757zm-1.13 8.626a5.306 5.306 0 01-7.495 0 5.306 5.306 0 010-7.495 5.284 5.284 0 013.747-1.55c1.357 0 2.714.517 3.747 1.55a5.306 5.306 0 010 7.495z"/><path d="M32.04 19.14a2.25 2.25 0 01-3.181-3.181 2.252 2.252 0 013.181 0 .799.799 0 101.131-1.131 3.854 3.854 0 00-5.443 0 3.854 3.854 0 000 5.443 3.838 3.838 0 002.722 1.126 3.83 3.83 0 002.721-1.126.799.799 0 10-1.13-1.131z"/></g><defs><clipPath id="clip0"><path fill="#fff" d="M0 0h48v48H0z"/></clipPath></defs></svg>