<svg width="160" height="160" fill="none" xmlns="http://www.w3.org/2000/svg"><path d="M109.333 0H50.667c-7.36.009-13.325 5.973-13.334 13.333v133.334c.009 7.36 5.974 13.324 13.334 13.333h58.666c7.36-.009 13.325-5.973 13.334-13.333V13.333C122.658 5.973 116.693.01 109.333 0zm8 146.667a8 8 0 01-8 8H50.667a8 8 0 01-8-8v-8h74.666v8zm0-13.334H42.667v-104h74.666v104zm0-109.333H42.667V13.333a8 8 0 018-8h58.666a8 8 0 018 8V24z" fill="#1E89E3"/><path d="M98.667 13.333H61.333v5.334h37.334v-5.334zM85.333 144H74.667v5.333h10.666V144zM58.667 34.667H48V40h10.667v-5.333zm16 0H64V40h10.667v-5.333zm16 10.666h-5.334v5.334h5.334v-5.334zM101.333 40H96v10.667h5.333V40zM112 34.667h-5.333v16H112v-16zm-16 48V61.333H77.333c-7.36.009-13.324 5.974-13.333 13.334v32c.009 7.36 5.973 13.324 13.333 13.333H96V98.667H85.333v-16H96zm-10.667-16h5.334v10.666h-5.334V66.667zm-5.333 48h-2.667a8 8 0 01-8-8v-32a8 8 0 018-8H80v48zM90.667 104v10.667h-5.334V104h5.334zm41.05-39.219l-3.77 3.771c6.309 6.328 6.309 16.568 0 22.896l3.77 3.77c8.389-8.411 8.389-22.025 0-30.437z" fill="#1E89E3"/><path d="M139.717 56.781l-3.77 3.771c10.723 10.748 10.723 28.148 0 38.896l3.77 3.771c12.802-12.832 12.802-33.606 0-46.438zM32.053 68.552l-3.77-3.77c-8.66 8.167-9.491 21.347-1.324 30.006.288.305.585.602 1.323.43l3.771-3.77c-6.31-6.328-6.31-16.568 0-22.896z" fill="#1E89E3"/><path d="M24.053 60.552l-3.77-3.77c-12.802 12.831-12.802 33.605 0 46.437l3.77-3.771c-10.72-10.75-10.72-28.147 0-38.896z" fill="#1E89E3"/></svg>