<svg width="45" height="45" fill="none" xmlns="http://www.w3.org/2000/svg"><g clip-path="url(#clip0)" fill="#0E5B74"><path d="M41.62 23.514c-.497 0-.956.121-1.363.304a3.374 3.374 0 00-2.66-1.304 3.38 3.38 0 00-1.515.37l-.047.026-1.381.82a3.368 3.368 0 00-2.588-1.216c-.56 0-1.074.149-1.516.37l-.055.032-5.29 3.24c-1.194-.353-2.52-.74-3.802-1.104-1.352-.383-2.653-.74-3.695-1.003-.522-.132-.978-.24-1.351-.317a9.839 9.839 0 00-.5-.092 2.794 2.794 0 00-.415-.038c-.109 0-.203.01-.31.023-.39.052-.944.17-1.598.324-1.335.313-3.04.77-3.981 1.026v-1.594a2.017 2.017 0 00-2.011-2.01h-5.53A2.017 2.017 0 000 23.38v15.587c0 1.106.905 2.011 2.011 2.011h5.53a2.017 2.017 0 002.012-2.011v-1.21c1.194.26 3.843.832 6.636 1.405 1.889.388 3.841.776 5.454 1.069.806.146 1.528.268 2.118.355.596.086 1.04.14 1.379.141.263 0 .512-.05.782-.125.501-.141 1.072-.381 1.725-.698 2.273-1.108 5.538-3.185 8.617-5.239 3.074-2.052 5.95-4.078 7.358-5.048.882-.608 1.378-1.635 1.378-2.723a3.383 3.383 0 00-3.38-3.38zM8.044 38.968a.51.51 0 01-.503.502h-5.53a.51.51 0 01-.504-.502V23.38a.51.51 0 01.503-.502h5.53a.51.51 0 01.504.502v15.587zm34.722-10.593c-1.733 1.194-5.61 3.931-9.362 6.369-1.875 1.218-3.719 2.36-5.23 3.187-.756.414-1.43.748-1.968.972a6.226 6.226 0 01-.691.247c-.186.053-.325.07-.376.07-.165.001-.6-.042-1.16-.126-1.98-.29-5.689-1.03-8.881-1.697a632.66 632.66 0 01-4.142-.879l-1.404-.304v-9.675l.572-.156c.796-.216 2.009-.539 3.097-.807a43.276 43.276 0 011.464-.339c.204-.042.381-.076.517-.097.134-.023.238-.03.24-.029.002 0 .08.005.188.021.416.063 1.27.262 2.309.534 3.132.818 8.07 2.297 10.065 2.903.69.208 1.316.522 1.726.902.206.19.36.393.465.613.104.22.163.46.164.752 0 .591-.238 1.12-.626 1.51a2.127 2.127 0 01-1.491.623l-1.947-.19-6.642-.853a.755.755 0 00-.193 1.496l6.664.855 2.063.202h.037a3.645 3.645 0 003.643-3.643c0-.506-.111-.982-.31-1.4-.299-.627-.78-1.113-1.324-1.483-.546-.372-1.163-.636-1.79-.827-.35-.106-.79-.24-1.295-.391l4.093-2.508c.266-.13.538-.204.825-.205.488 0 .928.189 1.261.495l-2.022 1.199a.754.754 0 10.77 1.297l4.694-2.784a1.85 1.85 0 01.829-.207c.52 0 .989.217 1.328.56l-5.466 3.242a.754.754 0 10.77 1.297l5.91-3.505a.744.744 0 00.172-.048.746.746 0 00.296-.23l.184-.109a1.85 1.85 0 01.829-.207c.518 0 .982.21 1.323.549.34.341.548.805.549 1.324-.003.632-.292 1.184-.727 1.48zM27.253 12.607c-.662-.486-1.43-.753-2.19-.968-.104-.03-.206-.053-.31-.08V6.955c.736.11 1.28.34 1.642.622.256.2.433.423.554.674.12.25.183.533.184.858a.754.754 0 001.508 0c0-.526-.108-1.042-.33-1.509-.335-.703-.929-1.28-1.702-1.654-.534-.26-1.158-.426-1.855-.508v-.663a.754.754 0 10-1.508 0v.621a5.263 5.263 0 00-1.472.315c-.854.323-1.479.874-1.866 1.493a3.602 3.602 0 00-.55 1.905c-.002.645.153 1.226.445 1.7.254.414.6.735.975.982.662.432 1.417.664 2.17.865l.297.076v4.952c-.734-.08-1.296-.316-1.674-.637-.463-.398-.7-.905-.705-1.553a.754.754 0 10-1.508 0 3.482 3.482 0 001.239 2.704c.682.578 1.592.924 2.648 1.01v.654a.754.754 0 101.508 0v-.682c.854-.086 1.651-.297 2.333-.719.466-.29.87-.693 1.142-1.201.275-.507.414-1.106.412-1.766.001-.688-.146-1.299-.427-1.807a3.343 3.343 0 00-.96-1.08zm-4.009-1.434c-.733-.197-1.366-.427-1.753-.724a1.502 1.502 0 01-.455-.524c-.102-.203-.17-.455-.17-.816 0-.463.17-1.019.586-1.441a2.34 2.34 0 01.858-.547c.258-.098.57-.17.934-.208v4.26zm3.657 5.37a1.64 1.64 0 01-.423.502c-.268.216-.639.389-1.101.504a5.35 5.35 0 01-.624.112v-4.54c.461.133.884.28 1.226.464.381.202.656.431.843.714.185.284.308.64.31 1.195 0 .456-.091.788-.231 1.049z"/></g><defs><clipPath id="clip0"><path fill="#fff" d="M0 0h45v45H0z"/></clipPath></defs></svg>