<svg width="28" height="27" fill="none" xmlns="http://www.w3.org/2000/svg"><path d="M14 21.278c.755 0 1.367-.59 1.367-1.318 0-.728-.612-1.318-1.367-1.318s-1.367.59-1.367 1.318c0 .728.612 1.318 1.367 1.318z" fill="url(#paint0_linear)"/><path d="M14 0C6.263 0 0 6.038 0 13.5 0 20.961 6.262 27 14 27c7.737 0 14-6.038 14-13.5C28 6.039 21.738 0 14 0zm0 24.89c-6.528 0-11.813-5.094-11.813-11.39C2.188 7.205 7.471 2.11 14 2.11c6.528 0 11.813 5.094 11.813 11.39 0 6.295-5.284 11.39-11.813 11.39z" fill="url(#paint1_linear)"/><path d="M14 6.776c-2.412 0-4.375 1.893-4.375 4.22 0 .582.49 1.054 1.094 1.054.604 0 1.094-.472 1.094-1.055 0-1.163.98-2.11 2.187-2.11 1.206 0 2.188.947 2.188 2.11 0 1.163-.982 2.11-2.188 2.11-.604 0-1.094.472-1.094 1.054v2.637c0 .582.49 1.055 1.094 1.055.604 0 1.094-.473 1.094-1.055V15.08c1.885-.47 3.281-2.123 3.281-4.085 0-2.326-1.963-4.219-4.375-4.219z" fill="url(#paint2_linear)"/><defs><linearGradient id="paint0_linear" x1="13.3" y1="19.2" x2="15" y2="21.3" gradientUnits="userSpaceOnUse"><stop stop-color="#FFD44D"/><stop offset="1" stop-color="#FF844D"/></linearGradient><linearGradient id="paint1_linear" x1="7.2" y1="5.4" x2="24.1" y2="27.6" gradientUnits="userSpaceOnUse"><stop stop-color="#FFD44D"/><stop offset="1" stop-color="#FF844D"/></linearGradient><linearGradient id="paint2_linear" x1="11.9" y1="9" x2="19.1" y2="16.2" gradientUnits="userSpaceOnUse"><stop stop-color="#FFD44D"/><stop offset="1" stop-color="#FF844D"/></linearGradient></defs></svg>