<svg width="28" height="27" fill="none" xmlns="http://www.w3.org/2000/svg"><path d="M14 0C6.28 0 0 6.056 0 13.5S6.28 27 14 27s14-6.057 14-13.5S21.72 0 14 0zm0 24.909c-6.523 0-11.831-5.118-11.831-11.409C2.169 7.21 7.477 2.091 14 2.091c6.524 0 11.831 5.118 11.831 11.409 0 6.29-5.308 11.409-11.831 11.409z" fill="url(#paint0_linear)"/><path d="M20.423 8.805a1.113 1.113 0 00-1.531.071L12.277 15.9 9.08 12.767a1.112 1.112 0 00-1.534-.012 1.018 1.018 0 00-.013 1.479l4 3.92a1.103 1.103 0 00.795.315c.299-.007.581-.13.782-.343l7.386-7.843a1.02 1.02 0 00-.074-1.478z" fill="url(#paint1_linear)"/><defs><linearGradient id="paint0_linear" x1="7.2" y1="5.4" x2="24.1" y2="27.6" gradientUnits="userSpaceOnUse"><stop stop-color="#FFD44D"/><stop offset="1" stop-color="#FF844D"/></linearGradient><linearGradient id="paint1_linear" x1="10.7" y1="10.5" x2="16.3" y2="20.2" gradientUnits="userSpaceOnUse"><stop stop-color="#FFD44D"/><stop offset="1" stop-color="#FF844D"/></linearGradient></defs></svg>