<svg width="160" height="160" fill="none" xmlns="http://www.w3.org/2000/svg"><g clip-path="url(#clip0)" fill="#1E89E3"><path d="M141.334 40.004V13.338a2.667 2.667 0 00-2.667-2.666h-10.666v5.333h8v23.999h5.333zM18.671 80.003v66.664a2.667 2.667 0 002.667 2.667h106.663a2.667 2.667 0 002.667-2.667v-18.666h-5.333V144H24.005V80.003H18.67zM105.106.273c-.083-.039-.163-.06-.249-.09a2.642 2.642 0 00-.69-.137c-.058-.01-.109-.04-.165-.04H21.338a2.667 2.667 0 00-2.667 2.666v5.333h5.334V5.338h77.33v21.333a2.667 2.667 0 002.667 2.667h21.333V42.67h5.333V26.671c0-.056-.029-.107-.033-.165a2.578 2.578 0 00-.138-.69c-.03-.086-.051-.166-.088-.25a2.645 2.645 0 00-.533-.78l-23.999-24a2.67 2.67 0 00-.771-.514zm16.458 23.732h-14.895V9.108l14.895 14.896z"/><path d="M61.336 112.002v21.332a2.667 2.667 0 002.667 2.667h34.665v-5.333H66.67v-16h13.332v-5.333H64.004a2.667 2.667 0 00-2.667 2.667z"/><path d="M72.003 120.001h16v5.333h-16v-5.333z"/><path d="M141.334 45.337c-10.303.013-18.653 8.363-18.666 18.666v.267l-13.6 14.356-8.514-8.514a2.665 2.665 0 00-3.77 0l-24 24a2.668 2.668 0 000 3.77l37.332 37.332a2.667 2.667 0 003.771 0l8-7.999 14.114-14.109v41.561H32.004V160h106.663a2.667 2.667 0 002.667-2.667V93.335h-5.333v12.229l-9.296-9.295 14.362-13.6h.267c10.309 0 18.666-8.356 18.666-18.666s-8.357-18.666-18.666-18.666zm-29.332 84.226L78.44 96.002l4.23-4.229 33.561 33.561-4.229 4.229zm20.228-20.228l-12.229 12.229L86.44 88.002l12.229-12.228 6.73 6.73-6 6.33a2.667 2.667 0 00.05 3.733l13.334 13.333a2.666 2.666 0 003.717.051l6.333-6 9.397 9.384zm9.104-31.999h-1.333c-.683 0-1.339.262-1.835.73l-23.447 22.203-9.651-9.65 22.213-23.448a2.665 2.665 0 00.72-1.835v-1.333c0-7.363 5.97-13.333 13.333-13.333s13.333 5.97 13.333 13.333-5.97 13.333-13.333 13.333zm-90.664 0h26.666v5.333H50.67v-5.333zm-16 10.666h32v5.334h-32v-5.334zm24-21.332h31.999v5.333h-32V66.67zm-24 31.999h16v5.333h-16v-5.333zm0 10.666h21.333v5.333H34.671v-5.333z"/><path d="M34.67 120.001h21.333v5.333H34.671v-5.333zm0 10.667h21.333v5.333H34.671v-5.333zm0-53.332h10.667v5.333H34.671v-5.333zM56.004 98.67H66.67v5.333H56.003V98.67zM66.67 53.337h26.665v5.333H66.67v-5.333z"/><path d="M32.004 74.67c17.222-.02 31.34-13.668 31.943-30.88a7.05 7.05 0 005.17 1.616 7.232 7.232 0 0011.104 0 7.232 7.232 0 007.85-7.85 7.228 7.228 0 002.598-5.552c0-2.144-.95-4.178-2.598-5.552a7.232 7.232 0 00-7.85-7.85 7.232 7.232 0 00-11.103 0 7.233 7.233 0 00-7.85 7.85 6.921 6.921 0 00-1.067 1.1c-7.398-13.8-23.693-20.219-38.514-15.173C6.866 17.425-2.13 32.453.43 47.899c2.558 15.447 15.918 26.773 31.574 26.77zm33.241-44.426a2.666 2.666 0 001.516-3.655 1.869 1.869 0 01.36-2.134 1.868 1.868 0 012.133-.36 2.666 2.666 0 003.655-1.516 1.867 1.867 0 013.52.001 2.666 2.666 0 003.657 1.516 1.867 1.867 0 012.492 2.493 2.667 2.667 0 001.516 3.655 1.867 1.867 0 010 3.52 2.667 2.667 0 00-1.516 3.657 1.794 1.794 0 01-.367 2.132c-.552.581-1.42.73-2.134.369a2.661 2.661 0 00-2.164-.055 2.66 2.66 0 00-1.491 1.57 1.869 1.869 0 01-3.52 0 2.66 2.66 0 00-1.494-1.571 2.611 2.611 0 00-2.163.064 1.867 1.867 0 01-2.492-2.493 2.665 2.665 0 00-1.516-3.656 1.866 1.866 0 010-3.52l.008-.017zm-33.24-14.24c14.726 0 26.665 11.94 26.665 26.666 0 14.728-11.939 26.666-26.666 26.666S5.338 57.398 5.338 42.67c.016-14.72 11.945-26.65 26.666-26.665z"/><path d="M19.452 57.889a2.668 2.668 0 003.771 0L49.89 31.223l-3.77-3.77-24.781 24.78-6.115-6.115-3.77 3.771 8 8z"/></g><defs><clipPath id="clip0"><path fill="#fff" d="M0 0h160v160H0z"/></clipPath></defs></svg>