<svg width="38" height="38" fill="none" xmlns="http://www.w3.org/2000/svg"><path d="M34.846 23.527c.53-.591.853-1.372.853-2.226a3.344 3.344 0 00-3.34-3.34h-6.482c.642-1.948.916-4.533.916-5.641v-1.113a4.459 4.459 0 00-4.453-4.453h-1.113c-.511 0-.956.347-1.08.843l-.607 2.426c-.85 3.398-3.547 7.147-6.34 7.828a3.344 3.344 0 00-3.106-2.117h-6.68c-.614 0-1.113.5-1.113 1.114v20.039A1.114 1.114 0 003.414 38h6.68a3.343 3.343 0 003.014-1.904l3.826 1.275a12.22 12.22 0 003.872.629h9.327a3.344 3.344 0 003.105-4.57 3.346 3.346 0 002.461-3.223 3.33 3.33 0 00-.853-2.227 3.327 3.327 0 000-4.453zM11.207 34.66c0 .614-.5 1.113-1.113 1.113H4.527V17.961h5.567c.614 0 1.113.5 1.113 1.113V34.66zm18.926-10.02h2.226a1.115 1.115 0 010 2.227h-2.226a1.114 1.114 0 000 2.227h2.226c.614 0 1.114.5 1.114 1.113 0 .614-.5 1.113-1.114 1.113h-2.226a1.114 1.114 0 000 2.227c.614 0 1.113.5 1.113 1.113 0 .614-.5 1.113-1.113 1.113h-9.326a9.998 9.998 0 01-3.17-.514l-4.203-1.401V20.082c1.746-.332 3.455-1.438 4.998-3.248 1.507-1.768 2.729-4.111 3.268-6.27l.396-1.584h.244a2.23 2.23 0 012.226 2.227v1.113c0 1.494-.467 4.361-1.065 5.64h-2.274a1.114 1.114 0 000 2.227h11.132a1.115 1.115 0 010 2.227h-2.226a1.114 1.114 0 000 2.227z" fill="#fff"/><path d="M7.867 33.547a1.113 1.113 0 100-2.227 1.113 1.113 0 000 2.227zM23.453 0c-.615 0-1.113.498-1.113 1.113v2.301a1.113 1.113 0 002.226 0v-2.3C24.566.497 24.068 0 23.453 0zM18.73 4.91l-1.575-1.575a1.113 1.113 0 10-1.574 1.574l1.574 1.575a1.113 1.113 0 001.575-1.575zm12.595-1.575a1.113 1.113 0 00-1.574 0l-1.575 1.574a1.113 1.113 0 101.575 1.575l1.574-1.575a1.113 1.113 0 000-1.574z" fill="#fff"/></svg>