<svg width="48" height="48" fill="none" xmlns="http://www.w3.org/2000/svg"><path d="M12 .75A11.25 11.25 0 1023.25 12 11.263 11.263 0 0012 .75zm0 21A9.75 9.75 0 1121.75 12 9.761 9.761 0 0112 21.75z" fill="#fff"/><path d="M15.75 8.25a.75.75 0 100-1.5h-3V6a.75.75 0 10-1.5 0v.75h-3a.75.75 0 00-.75.75V12a.75.75 0 00.75.75H15v3H8.25a.75.75 0 100 1.5h3V18a.75.75 0 101.5 0v-.75h3a.75.75 0 00.75-.75V12a.75.75 0 00-.75-.75H9v-3h6.75zm5.25 27h-4.5V25.5a.75.75 0 00-.75-.75h-7.5a.75.75 0 00-.75.75v9.75H3a.75.75 0 00-.57 1.238l9 10.5a.75.75 0 001.14 0l9-10.5A.75.75 0 0021 35.25zm-9 10.097L4.63 36.75h3.62A.75.75 0 009 36v-9.75h6V36a.75.75 0 00.75.75h3.62L12 45.347zM36 23.25A11.25 11.25 0 1024.75 12 11.262 11.262 0 0036 23.25zm0-21A9.75 9.75 0 1126.25 12 9.761 9.761 0 0136 2.25z" fill="#fff"/><path d="M32.25 15.75a.75.75 0 100 1.5h3V18a.75.75 0 101.5 0v-.75h3a.75.75 0 00.75-.75V12a.75.75 0 00-.75-.75H33v-3h6.75a.75.75 0 100-1.5h-3V6a.75.75 0 10-1.5 0v.75h-3a.75.75 0 00-.75.75V12a.75.75 0 00.75.75H39v3h-6.75zM45 35.25h-4.5V25.5a.75.75 0 00-.75-.75h-7.5a.75.75 0 00-.75.75v9.75H27a.75.75 0 00-.57 1.238l9 10.5a.75.75 0 001.14 0l9-10.5A.75.75 0 0045 35.25zm-9 10.097l-7.37-8.597h3.62A.75.75 0 0033 36v-9.75h6V36a.75.75 0 00.75.75h3.62L36 45.347z" fill="#fff"/></svg>