<svg width="160" height="160" fill="none" xmlns="http://www.w3.org/2000/svg"><path d="M55.119 0c30.392 0 55.118 24.726 55.118 55.119 0 12.505-4.189 24.049-11.233 33.308l11.166 11.166c.07.07.135.145.196.222.914-.19 1.854-.29 2.809-.29 3.645 0 7.074 1.42 9.653 3.999l33.174 33.174A13.56 13.56 0 01160 146.35c0 3.646-1.42 7.074-3.998 9.651A13.561 13.561 0 01146.35 160c-3.646 0-7.074-1.42-9.653-3.999l-33.175-33.175a13.557 13.557 0 01-3.998-9.651c0-.956.1-1.895.29-2.809a2.563 2.563 0 01-.221-.197L88.427 99.004c-9.259 7.045-20.803 11.233-33.308 11.233C24.726 110.237 0 85.511 0 55.119 0 24.726 24.726 0 55.119 0zm85.244 152.336a8.411 8.411 0 005.987 2.48 8.412 8.412 0 005.987-2.481 8.406 8.406 0 002.479-5.985c0-2.262-.88-4.388-2.479-5.986l-29.961-29.961-11.973 11.973 29.96 29.96zm-33.607-33.643l11.932-11.932a8.442 8.442 0 00-5.513-2.048 8.446 8.446 0 00-5.988 2.476 8.408 8.408 0 00-2.479 5.986 8.4 8.4 0 002.048 5.518zm-4.719-13.409c.442-.621.935-1.211 1.485-1.76.55-.55 1.141-1.044 1.762-1.486l-9.622-9.62a55.517 55.517 0 01-3.245 3.245l9.62 9.621zm-46.918-.23c27.534 0 49.935-22.4 49.935-49.935 0-27.535-22.4-49.935-49.935-49.935-27.535 0-49.935 22.4-49.935 49.935 0 27.534 22.4 49.935 49.935 49.935z" fill="#1E89E3"/><path d="M55.119 11.058c24.295 0 44.06 19.766 44.06 44.06 0 24.296-19.765 44.061-44.06 44.061-24.296 0-44.06-19.765-44.06-44.06s19.764-44.06 44.06-44.06zm0 82.938c21.436 0 38.876-17.44 38.876-38.877S76.555 16.242 55.12 16.242c-21.437 0-38.877 17.44-38.877 38.877s17.44 38.877 38.877 38.877z" fill="#1E89E3"/><path d="M37.122 27.451a2.591 2.591 0 112.83 4.343c-7.922 5.163-12.651 13.882-12.651 23.325 0 6.45 2.258 12.737 6.358 17.702a2.592 2.592 0 11-3.997 3.3 33.054 33.054 0 01-7.545-21.002c0-11.201 5.609-21.544 15.005-27.668zm12-4.79a33.278 33.278 0 015.997-.544 2.592 2.592 0 110 5.183c-1.701 0-3.404.155-5.061.46a2.593 2.593 0 01-.937-5.098z" fill="#1E89E3"/></svg>