<svg width="160" height="160" viewBox="0 0 160 160" fill="none" xmlns="http://www.w3.org/2000/svg"><path d="M145 60a2.5 2.5 0 00-2.5-2.5H100v-40a2.5 2.5 0 00-2.5-2.5c-2.513.014-5.022.23-7.5.65V7.5A2.5 2.5 0 0087.5 5h-60a2.582 2.582 0 00-1.775.725l-20 20A2.582 2.582 0 005 27.5v125a2.5 2.5 0 002.5 2.5h80a2.5 2.5 0 002.5-2.5v-43.15c2.478.419 4.987.637 7.5.65A47.54 47.54 0 00145 62.5c0-.675-.025-1.35-.05-2.025.03-.157.047-.316.05-.475zM95 20.075v38.9l-30.4 30.4a42.477 42.477 0 0130.4-69.3zm-70-6.55V25H13.525L25 13.525zM85 150H10V30h17.5a2.5 2.5 0 002.5-2.5V10h55v6.725a47.433 47.433 0 000 91.55V150zm12.5-45A42.323 42.323 0 0168 93.025L98.525 62.5H140A42.563 42.563 0 0197.5 105z" fill="#1E89E3"/><path d="M107.5 52.5h45v-.015a2.479 2.479 0 002.28-1.642c.113-.313.161-.646.143-.978A47.459 47.459 0 00107.5 5a2.5 2.5 0 00-2.5 2.5V50a2.5 2.5 0 002.5 2.5zm42.205-5H110V10.072A42.458 42.458 0 01149.705 47.5zM47.5 100a22.503 22.503 0 00-22.068 26.89 22.503 22.503 0 0030.678 16.397A22.502 22.502 0 0070 122.5 22.536 22.536 0 0047.5 100zm0 40A17.5 17.5 0 1165 122.5 17.52 17.52 0 0147.5 140z" fill="#1E89E3"/><path d="M55 127.5a7.524 7.524 0 01-5 7.05v2.95h-5v-2.95a7.523 7.523 0 01-5-7.05h5a2.501 2.501 0 102.5-2.5 7.5 7.5 0 01-2.5-14.55v-2.95h5v2.95a7.523 7.523 0 015 7.05h-5a2.501 2.501 0 10-2.5 2.5 7.523 7.523 0 017.5 7.5zM20 40h25v5H20v-5zm0 15h25v5H20v-5zm0 15h25v5H20v-5zm0 15h25v5H20v-5zm80 35h10v5h-10v-5zm15 0h40v5h-40v-5zm-15 15h10v5h-10v-5zm15 0h40v5h-40v-5zm-15 15h10v5h-10v-5zm15 0h40v5h-40v-5z" fill="#1E89E3"/></svg>