<svg width="38" height="38" viewBox="0 0 38 38" fill="none" xmlns="http://www.w3.org/2000/svg"><g clip-path="url(#clip0)" fill="#fff"><path d="M31.438 7.971a17.458 17.458 0 00-9.928-4.974L22.606 1.9A1.113 1.113 0 1021.032.326l-2.82 2.82a1.113 1.113 0 000 1.574l2.82 2.819a1.11 1.11 0 001.574 0 1.113 1.113 0 000-1.574l-.628-.628c7.051 1.39 12.385 7.62 12.385 15.073 0 8.471-6.892 15.363-15.363 15.363-8.472 0-15.364-6.892-15.364-15.363 0-3.233.992-6.325 2.87-8.943a15.32 15.32 0 017.327-5.53 1.113 1.113 0 10-.749-2.098 17.537 17.537 0 00-8.388 6.33 17.47 17.47 0 00-3.287 10.24c0 4.7 1.83 9.117 5.153 12.439A17.476 17.476 0 0019 38c4.698 0 9.116-1.83 12.438-5.152A17.475 17.475 0 0036.59 20.41c0-4.699-1.83-9.116-5.152-12.439z"/><path d="M7.561 20.41c0 6.307 5.132 11.438 11.439 11.438s11.438-5.131 11.438-11.438S25.307 8.97 19 8.97c-6.308 0-11.439 5.132-11.439 11.439zM19 11.198c5.079 0 9.211 4.132 9.211 9.212 0 5.079-4.132 9.212-9.211 9.212-5.08 0-9.212-4.133-9.212-9.212 0-5.08 4.132-9.212 9.212-9.212z"/><path d="M20.36 19.305c-.881-.311-1.854-.686-2.392-1.108-.134-.105-.192-.373-.14-.65.028-.145.155-.631.645-.779.861-.26 1.448.082 1.66.24a1.113 1.113 0 101.334-1.783 4.05 4.05 0 00-1.414-.656v-.299a1.113 1.113 0 00-2.227 0v.368c-1.122.34-1.96 1.296-2.186 2.497-.209 1.11.157 2.189.954 2.814.789.619 1.92 1.065 3.023 1.455.87.308.897.975.834 1.345-.104.618-.623 1.286-1.519 1.291-.935.007-1.201-.036-1.907-.497a1.113 1.113 0 10-1.22 1.863c.769.502 1.344.721 2.021.809v.334a1.113 1.113 0 102.227 0v-.448a3.658 3.658 0 001.417-.811 3.823 3.823 0 001.177-2.172c.285-1.696-.634-3.228-2.288-3.813z"/></g><defs><clipPath id="clip0"><path fill="#fff" d="M0 0h38v38H0z"/></clipPath></defs></svg>