<svg width="82" height="82" fill="none" xmlns="http://www.w3.org/2000/svg"><path d="M67.568 39.633V69.7h-8.2c-.754 0-1.366.612-1.366 1.367v8.2H7.435V2.733h60.133V20.5h2.734V1.367C70.302.612 69.69 0 68.935 0H6.068c-.754 0-1.366.612-1.366 1.367v79.266c0 .755.612 1.367 1.366 1.367h53.3c.363 0 .71-.145.967-.4l9.566-9.567a1.37 1.37 0 00.274-.4c.019-.043.03-.084.045-.128.039-.114.063-.234.07-.355 0-.029.017-.055.017-.083V39.633h-2.739zm-6.833 37.701v-4.9h4.9l-4.9 4.9z" fill="url(#paint0_linear)"/><path d="M76.051 22.95a4.365 4.365 0 00-6.032 0L46.102 46.868c-.256.256-.4.604-.4.966v4.1c0 .755.612 1.367 1.366 1.367h4.1c.363 0 .71-.144.967-.4L76.05 28.983a4.27 4.27 0 000-6.032zM50.602 50.568h-2.167V48.4l17.083-17.083 2.168 2.167-17.084 17.084zM69.618 31.55l-2.167-2.168 1.484-1.484 2.168 2.168-1.485 1.484zm4.5-4.5l-1.083 1.083-2.167-2.167 1.083-1.084a1.57 1.57 0 012.168 0c.596.6.596 1.568 0 2.168z" fill="url(#paint1_linear)"/><path d="M17.002 17.767a5.467 5.467 0 100 10.933 5.467 5.467 0 000-10.933zm0 8.2a2.733 2.733 0 110-5.467 2.733 2.733 0 010 5.467z" fill="url(#paint2_linear)"/><path d="M42.568 6.433L40.635 4.5l-3.133 3.134L34.367 4.5l-1.933 1.933 3.134 3.134-3.134 3.133 1.933 1.933 3.133-3.134 3.134 3.134 1.933-1.932-3.134-3.134 3.134-3.134z" fill="url(#paint3_linear)"/><path d="M55.268 16.4a5.467 5.467 0 100 10.933 5.467 5.467 0 000-10.933zm0 8.2a2.733 2.733 0 110-5.467 2.733 2.733 0 010 5.467z" fill="url(#paint4_linear)"/><path d="M21.102 56.033a5.467 5.467 0 100 10.934 5.467 5.467 0 000-10.934zm0 8.2a2.733 2.733 0 110-5.466 2.733 2.733 0 010 5.466z" fill="url(#paint5_linear)"/><path d="M27.534 37.866l-1.932-1.932-3.134 3.133-3.134-3.133-1.932 1.932L20.536 41l-3.134 3.134 1.932 1.932 3.134-3.134 3.134 3.134 1.932-1.932L24.401 41l3.133-3.134z" fill="url(#paint6_linear)"/><path d="M61.701 57l-1.932-1.933-3.134 3.134-3.134-3.134-1.932 1.932 3.133 3.134-3.133 3.134 1.932 1.932 3.134-3.133 3.134 3.133 1.932-1.932-3.134-3.134L61.701 57z" fill="url(#paint7_linear)"/><path d="M29.638 27.333h2.323V24.6h-5.466c-.755 0-1.367.612-1.367 1.367v5.466h2.733V29.52c5.929 7.644 5.502 18.443-1.011 25.595l2.024 1.84c7.575-8.315 7.9-20.928.764-29.622z" fill="url(#paint8_linear)"/><path d="M37.502 62.867a5.467 5.467 0 100 10.933 5.467 5.467 0 000-10.933zm0 8.2a2.733 2.733 0 110-5.467 2.733 2.733 0 010 5.467z" fill="url(#paint9_linear)"/><path d="M46.668 19.534l-4.1-4.1-1.933 1.932 1.768 1.767H25.202v2.733h17.2l-1.767 1.768 1.933 1.932 4.1-4.1a1.367 1.367 0 000-1.932z" fill="url(#paint10_linear)"/><path d="M49.802 27.334h-5.467v2.733h2.214A38.412 38.412 0 0036.135 56.46v3.672h2.733V56.46a35.709 35.709 0 019.567-24.414v2.12h2.733V28.7c0-.755-.612-1.366-1.366-1.366z" fill="url(#paint11_linear)"/><defs><linearGradient id="paint0_linear" x1="58.5" y1="34.3" x2="65.9" y2="63.6" gradientUnits="userSpaceOnUse"><stop stop-color="#FFDA67"/><stop offset="1" stop-color="#FF7638"/></linearGradient><linearGradient id="paint1_linear" x1="71.6" y1="34.9" x2="73.9" y2="46.5" gradientUnits="userSpaceOnUse"><stop stop-color="#FFDA67"/><stop offset="1" stop-color="#FF7638"/></linearGradient><linearGradient id="paint2_linear" x1="20.5" y1="22.3" x2="21.3" y2="26.3" gradientUnits="userSpaceOnUse"><stop stop-color="#FFDA67"/><stop offset="1" stop-color="#FF7638"/></linearGradient><linearGradient id="paint3_linear" x1="40.7" y1="8.7" x2="41.5" y2="12.4" gradientUnits="userSpaceOnUse"><stop stop-color="#FFDA67"/><stop offset="1" stop-color="#FF7638"/></linearGradient><linearGradient id="paint4_linear" x1="58.8" y1="21" x2="59.6" y2="25" gradientUnits="userSpaceOnUse"><stop stop-color="#FFDA67"/><stop offset="1" stop-color="#FF7638"/></linearGradient><linearGradient id="paint5_linear" x1="24.6" y1="60.6" x2="25.4" y2="64.6" gradientUnits="userSpaceOnUse"><stop stop-color="#FFDA67"/><stop offset="1" stop-color="#FF7638"/></linearGradient><linearGradient id="paint6_linear" x1="25.7" y1="40.2" x2="26.5" y2="43.9" gradientUnits="userSpaceOnUse"><stop stop-color="#FFDA67"/><stop offset="1" stop-color="#FF7638"/></linearGradient><linearGradient id="paint7_linear" x1="59.9" y1="59.3" x2="60.6" y2="63" gradientUnits="userSpaceOnUse"><stop stop-color="#FFDA67"/><stop offset="1" stop-color="#FF7638"/></linearGradient><linearGradient id="paint8_linear" x1="33" y1="38.1" x2="38.7" y2="46.6" gradientUnits="userSpaceOnUse"><stop stop-color="#FFDA67"/><stop offset="1" stop-color="#FF7638"/></linearGradient><linearGradient id="paint9_linear" x1="41" y1="67.4" x2="41.8" y2="71.4" gradientUnits="userSpaceOnUse"><stop stop-color="#FFDA67"/><stop offset="1" stop-color="#FF7638"/></linearGradient><linearGradient id="paint10_linear" x1="43.1" y1="19.7" x2="43.5" y2="23.5" gradientUnits="userSpaceOnUse"><stop stop-color="#FFDA67"/><stop offset="1" stop-color="#FF7638"/></linearGradient><linearGradient id="paint11_linear" x1="48.5" y1="41.1" x2="53.1" y2="51.5" gradientUnits="userSpaceOnUse"><stop stop-color="#FFDA67"/><stop offset="1" stop-color="#FF7638"/></linearGradient></defs></svg>