<svg width="40" height="40" viewBox="0 0 40 40" fill="none" xmlns="http://www.w3.org/2000/svg"><path d="M32.5 25.469a.782.782 0 100-1.563.782.782 0 000 1.563z" fill="#0E5B74"/><path d="M39.219 38.438h-1.25V16.875a.781.781 0 00-.782-.781H32.5a.781.781 0 00-.781.781v4.688a.781.781 0 101.562 0v-3.907h3.125v20.782h-3.125V27.812a.781.781 0 10-1.562 0v10.625h-3.125V23.126a.781.781 0 00-.782-.781h-4.687a.781.781 0 00-.781.781v15.313h-3.125V27.812a.781.781 0 00-.782-.78H13.75a.781.781 0 00-.781.78v10.625H9.844v-7.5a.781.781 0 00-.781-.78H4.375a.781.781 0 00-.781.78v7.5H1.563V.782A.781.781 0 100 .781V39.22c0 .431.35.781.781.781H39.22a.781.781 0 100-1.563zm-30.938 0H5.156v-6.72h3.125v6.72zm9.375 0h-3.125v-9.844h3.125v9.843zm9.375 0h-3.125V23.905h3.125v14.532z" fill="#0E5B74"/><path d="M7.338 24.671a.781.781 0 00.324 1.529c10.13-2.147 18.671-8.259 24.06-16.484l1.296.908a.782.782 0 001.221-.526l.769-5.184a.78.78 0 00-1.145-.801l-4.608 2.495a.782.782 0 00-.076 1.327l1.262.884c-5.296 8.094-13.675 13.855-23.103 15.852zm25.895-18.44l-.354 2.387-1.768-1.238 2.122-1.15z" fill="#0E5B74"/></svg>