<svg width="82" height="82" viewBox="0 0 82 82" fill="none" xmlns="http://www.w3.org/2000/svg"><g clip-path="url(#clip0)"><path d="M56.884 63.209a1.604 1.604 0 00-2.286-.021l-.016.015a1.604 1.604 0 00-.048 2.286c.29.299.71.482 1.15.482.39 0 .793-.143 1.137-.476a1.604 1.604 0 00.063-2.286z" fill="url(#paint0_linear)"/><path d="M71.385 32.377a1.602 1.602 0 00-3.004 1.112 33.512 33.512 0 012.084 11.68c0 18.543-15.086 33.628-33.628 33.628-6.881 0-13.495-2.063-19.129-5.966a1.601 1.601 0 10-1.824 2.632C22.056 79.74 29.301 82 36.837 82c9.838 0 19.086-3.831 26.043-10.788 6.956-6.956 10.788-16.205 10.788-26.043 0-4.399-.769-8.702-2.283-12.792z" fill="url(#paint1_linear)"/><path d="M49.239 10.48a36.73 36.73 0 00-12.403-2.142C27 8.338 17.75 12.17 10.793 19.126 3.837 26.082.006 35.33.006 45.169c0 7.63 2.312 14.949 6.686 21.167a1.599 1.599 0 002.231.389 1.601 1.601 0 00.389-2.232C5.319 58.817 3.208 52.135 3.208 45.17c0-18.543 15.086-33.628 33.628-33.628 3.889 0 7.698.657 11.324 1.954a1.601 1.601 0 001.079-3.016z" fill="url(#paint2_linear)"/><path d="M81.872 13.28a1.601 1.601 0 00-1.48-.988H71.98l.904-.905a1.602 1.602 0 00-2.264-2.265l-.917.917V1.6A1.602 1.602 0 0066.97.47L52.852 14.586c-.3.3-.47.707-.47 1.132v5.555c-4.618-3.021-9.943-4.608-15.546-4.608-15.717 0-28.503 12.787-28.503 28.504s12.786 28.504 28.503 28.504c5.217 0 10.32-1.423 14.76-4.114a1.601 1.601 0 00-1.661-2.739 25.257 25.257 0 01-13.099 3.65c-13.95 0-25.3-11.35-25.3-25.301 0-13.951 11.35-25.301 25.3-25.301 5.697 0 11.07 1.846 15.547 5.34v2.15l-2.918 2.918a19.449 19.449 0 00-12.629-4.643c-10.772 0-19.536 8.764-19.536 19.536 0 10.772 8.764 19.536 19.536 19.536 10.773 0 19.537-8.764 19.537-19.536 0-4.811-1.75-9.22-4.644-12.629l2.93-2.93h2.13a25.358 25.358 0 015.348 15.559c0 4.72-1.308 9.325-3.783 13.316a1.601 1.601 0 102.722 1.688 28.435 28.435 0 004.264-15.004 28.589 28.589 0 00-4.62-15.558h5.556c.424 0 .832-.17 1.132-.47l14.117-14.116a1.6 1.6 0 00.347-1.745zM53.17 45.17c0 9.006-7.327 16.333-16.333 16.333-9.007 0-16.334-7.327-16.334-16.334 0-9.006 7.327-16.333 16.334-16.333 3.927 0 7.535 1.393 10.356 3.712l-3.647 3.647a11.15 11.15 0 00-6.71-2.235c-6.18 0-11.209 5.029-11.209 11.21 0 6.18 5.029 11.209 11.21 11.209 6.18 0 11.21-5.03 11.21-11.21 0-2.514-.833-4.837-2.236-6.71l3.647-3.646a16.259 16.259 0 013.712 10.356zm-17.466 1.132a1.601 1.601 0 002.265-.001l5.544-5.544a7.959 7.959 0 011.33 4.412c0 4.415-3.592 8.007-8.006 8.007-4.415 0-8.007-3.592-8.007-8.007 0-4.415 3.592-8.006 8.007-8.006 1.63 0 3.145.49 4.412 1.33l-5.545 5.544a1.601 1.601 0 000 2.265zm19.882-22.147v-7.774L66.5 5.467v7.774L55.586 24.155zm10.027 2.253h-7.75l10.913-10.914h7.75L65.614 26.408z" fill="url(#paint3_linear)"/><path d="M13.026 68.915a1.613 1.613 0 00-1.132-.47 1.606 1.606 0 00-1.601 1.601 1.606 1.606 0 001.601 1.603c.421 0 .834-.172 1.132-.47.298-.297.47-.71.47-1.132 0-.421-.172-.832-.47-1.132z" fill="url(#paint4_linear)"/></g><defs><linearGradient id="paint0_linear" x1="56.748" y1="64.08" x2="56.987" y2="65.268" gradientUnits="userSpaceOnUse"><stop stop-color="#FFDA67"/><stop offset="1" stop-color="#FF7638"/></linearGradient><linearGradient id="paint1_linear" x1="63.172" y1="52.529" x2="66.43" y2="71.222" gradientUnits="userSpaceOnUse"><stop stop-color="#FFDA67"/><stop offset="1" stop-color="#FF7638"/></linearGradient><linearGradient id="paint2_linear" x1="41.274" y1="32.887" x2="46.234" y2="54.029" gradientUnits="userSpaceOnUse"><stop stop-color="#FFDA67"/><stop offset="1" stop-color="#FF7638"/></linearGradient><linearGradient id="paint3_linear" x1="68.773" y1="30.822" x2="74.186" y2="57.739" gradientUnits="userSpaceOnUse"><stop stop-color="#FFDA67"/><stop offset="1" stop-color="#FF7638"/></linearGradient><linearGradient id="paint4_linear" x1="12.921" y1="69.786" x2="13.156" y2="70.956" gradientUnits="userSpaceOnUse"><stop stop-color="#FFDA67"/><stop offset="1" stop-color="#FF7638"/></linearGradient><clipPath id="clip0"><path fill="#fff" d="M0 0h82v82H0z"/></clipPath></defs></svg>